# SSTK version 0.8.0
# 123
mtllib original-123.mtl
o RT_11_TL1/RT_11_TL/mesh51/mesh51-geometry#mesh51-geometry
v -0.004681 0.140964 0.239079
v -0.005111 0.222827 0.239509
v -0.005111 0.140964 0.239509
v -0.004681 0.222397 0.239079
v -0.005653 0.140964 0.239786
v -0.004404 0.140964 0.238537
v 0.080971 0.222827 0.239509
v -0.005653 0.223369 0.239786
v -0.004404 0.222121 0.238537
v 0.080971 0.222397 0.239079
v 0.080971 0.223369 0.239786
v -0.006253 0.140964 0.239881
v -0.004309 0.140964 0.237937
v 0.080971 0.223970 0.239881
v -0.006253 0.223970 0.239881
v -0.004309 0.222026 0.237937
v 0.080971 0.222121 0.238537
v -0.008806 0.140964 0.239881
v -0.004309 0.140964 0.237294
v 0.080971 0.226523 0.239881
v -0.008806 0.226523 0.239881
v -0.004309 0.222026 0.237294
v 0.080971 0.222026 0.237937
v -0.009438 0.140964 0.239853
v -0.002333 0.220049 0.237294
v 0.080971 0.222026 0.237294
v 0.080971 0.227154 0.239853
v -0.009438 0.227154 0.239853
v -0.002333 0.140964 0.237294
v -0.010017 0.140964 0.239598
v -0.002333 0.140964 0.238346
v 0.080971 0.220049 0.237294
v 0.080971 0.227733 0.239598
v -0.010017 0.227733 0.239598
v -0.002333 0.220049 0.238346
v 0.080971 0.220049 0.238346
v -0.010464 0.228180 0.239151
v -0.002290 0.140964 0.238621
v 0.080971 0.228180 0.239151
v -0.010464 0.140964 0.239151
v -0.002290 0.220006 0.238621
v -0.010719 0.140964 0.238572
v 0.080971 0.228435 0.238572
v -0.002163 0.140964 0.238868
v 0.080971 0.220006 0.238621
v -0.010719 0.228435 0.238572
v -0.002163 0.219880 0.238868
v -0.010746 0.228462 0.237941
v 0.080971 0.228462 0.237941
v -0.001967 0.140964 0.239064
v 0.080971 0.219880 0.238868
v -0.010746 0.140964 0.237941
v -0.001967 0.219683 0.239064
v -0.010746 0.228462 0.226169
v -0.001720 0.219436 0.239191
v 0.080971 0.219683 0.239064
v -0.010746 0.140964 0.226169
v 0.080971 0.228462 0.226169
v -0.001720 0.140964 0.239191
v -0.010651 0.228367 0.225569
v -0.001445 0.219162 0.239234
v 0.080971 0.219436 0.239191
v -0.010651 0.140964 0.225569
v 0.080971 0.228367 0.225569
v -0.001445 0.140964 0.239234
v -0.010375 0.140964 0.225027
v -0.010375 0.228091 0.225027
v 0.022682 0.195034 0.239221
v 0.080971 0.219162 0.239234
v 0.080971 0.228091 0.225027
v 0.022682 0.140964 0.239221
v -0.009945 0.227661 0.224596
v 0.026592 0.191125 0.239536
v 0.080971 0.195034 0.239221
v -0.009945 0.140964 0.224596
v 0.080971 0.227661 0.224596
v 0.026592 0.140964 0.239536
v -0.009403 0.140964 0.224320
v 0.080971 0.227119 0.224320
v 0.030476 0.187241 0.240082
v 0.080971 0.191125 0.239536
v -0.009403 0.227119 0.224320
v 0.030476 0.140964 0.240082
v -0.008802 0.140964 0.224225
v 0.080971 0.226518 0.224225
v 0.034320 0.183396 0.240857
v 0.080971 0.187241 0.240082
v -0.008802 0.226518 0.224225
v 0.034320 0.140964 0.240857
v 0.051378 0.140964 0.224225
v 0.051378 0.166338 0.224225
v 0.038113 0.179604 0.241858
v 0.080971 0.183396 0.240857
v 0.080971 0.166338 0.224225
v 0.038113 0.140964 0.241858
v 0.051378 0.166338 0.225320
v 0.041839 0.175878 0.243083
v 0.080971 0.179604 0.241858
v 0.051378 0.140964 0.225320
v 0.080971 0.166338 0.225320
v 0.041839 0.140964 0.243083
v 0.080971 0.140964 0.225320
v 0.045485 0.172231 0.244527
v 0.080971 0.175878 0.243083
v 0.045485 0.140964 0.244527
v 0.046453 0.171263 0.244921
v 0.080971 0.172231 0.244527
v 0.046453 0.140964 0.244921
v 0.047490 0.170226 0.245055
v 0.080971 0.171263 0.244921
v 0.047490 0.140964 0.245055
v 0.048690 0.169026 0.244865
v 0.080971 0.170226 0.245055
v 0.048690 0.140964 0.244865
v 0.049773 0.167943 0.244314
v 0.080971 0.169026 0.244865
v 0.049773 0.140964 0.244314
v 0.050633 0.167083 0.243456
v 0.080971 0.167943 0.244314
v 0.050633 0.140964 0.243456
v 0.051186 0.166530 0.242374
v 0.080971 0.167083 0.243456
v 0.051186 0.140964 0.242374
v 0.051378 0.140964 0.241174
v 0.080971 0.166530 0.242374
v 0.051378 0.166338 0.241174
v 0.051378 0.166338 0.233085
v 0.080971 0.166338 0.241174
v 0.051378 0.140964 0.233085
v 0.080971 0.166338 0.233085
v 0.080971 0.140964 0.233085
vt 0.935539 0.416137
vt 0.935217 0.477544
vt 0.935217 0.416137
vt 0.935539 0.477221
vt 0.93481 0.416137
vt 0.935747 0.416137
vt 0.645917 -0.074042
vt 0.645595 -0.009794
vt 0.645595 -0.074365
vt 0.93481 0.47795
vt 0.935747 0.477014
vt 0.645917 -0.009794
vt 0.645188 -0.009794
vt 0.645188 -0.074772
vt 0.93436 0.416137
vt 0.935818 0.416137
vt 0.646124 -0.073835
vt 0.644737 -0.009794
vt 0.93436 0.478401
vt 0.935818 0.476942
vt 0.646124 -0.009794
vt 0.644737 -0.075222
vt 0.932445 0.416137
vt 0.646196 -0.073764
vt 0.642823 -0.009794
vt 0.932445 0.480316
vt 0.646196 -0.009794
vt 0.642823 -0.077137
vt 0.931971 0.416137
vt 0.9373 0.47546
vt 0.642349 -0.009794
vt 0.931971 0.48079
vt 0.9373 0.416137
vt 0.647678 -0.072281
vt 0.642349 -0.077611
vt 0.931537 0.416137
vt 0.647678 -0.009794
vt 0.641914 -0.009794
vt 0.931537 0.481224
vt 0.641914 -0.078045
vt 0.931201 0.481559
vt 0.937333 0.416137
vt 0.641579 -0.009794
vt 0.931201 0.416137
vt 0.641579 -0.078381
vt 0.937333 0.475427
vt 0.647711 -0.072249
vt 0.93101 0.416137
vt 0.641388 -0.009794
vt 0.937428 0.416137
vt 0.647711 -0.009794
vt 0.93101 0.48175
vt 0.641388 -0.078572
vt 0.937428 0.475333
vt 0.647805 -0.072154
vt 0.93099 0.481771
vt 0.641367 -0.009794
vt 0.937575 0.416137
vt 0.647805 -0.009794
vt 0.93099 0.416137
vt 0.641367 -0.078592
vt 0.937575 0.475186
vt 0.647953 -0.072007
vt 0.93776 0.475
vt 0.647953 -0.009794
vt 0.93776 0.416137
vt 0.648138 -0.071821
vt 0.931061 0.481699
vt 0.641439 -0.078521
vt 0.937966 0.474794
vt 0.648138 -0.009794
vt 0.931061 0.416137
vt 0.641439 -0.009794
vt 0.937966 0.416137
vt 0.648344 -0.071616
vt 0.931268 0.416137
vt 0.641646 -0.078314
vt 0.956064 0.456696
vt 0.648344 -0.009794
vt 0.931268 0.481492
vt 0.641646 -0.009794
vt 0.956064 0.416137
vt 0.666442 -0.053517
vt 0.931591 0.48117
vt 0.641969 -0.077991
vt 0.958997 0.453763
vt 0.666442 -0.009794
vt 0.931591 0.416137
vt 0.641969 -0.009794
vt 0.958997 0.416137
vt 0.669375 -0.050585
vt 0.931997 0.416137
vt 0.642375 -0.009794
vt 0.961911 0.45085
vt 0.669375 -0.009794
vt 0.931997 0.480763
vt 0.642375 -0.077585
vt 0.961911 0.416137
vt 0.672288 -0.047671
vt 0.932448 0.416137
vt 0.642826 -0.009794
vt 0.964795 0.447966
vt 0.672288 -0.009794
vt 0.932448 0.480313
vt 0.642826 -0.077134
vt 0.964795 0.416137
vt 0.675172 -0.044787
vt 0.97759 0.416137
vt 0.687968 -0.031992
vt 0.967639 0.445121
vt 0.675172 -0.009794
vt 0.97759 0.435171
vt 0.687968 -0.009794
vt 0.967639 0.416137
vt 0.678017 -0.041943
vt 0.970434 0.442326
vt 0.678017 -0.009794
vt 0.970434 0.416137
vt 0.680812 -0.039148
vt 0.999788 0.416137
vt 0.999788 0.435171
vt 0.97317 0.439591
vt 0.680812 -0.009794
vt 0.97317 0.416137
vt 0.683547 -0.036412
vt 0.973896 0.438865
vt 0.683547 -0.009794
vt 0.973896 0.416137
vt 0.684273 -0.035686
vt 0.974673 0.438087
vt 0.684273 -0.009794
vt 0.974673 0.416137
vt 0.685051 -0.034909
vt 0.975573 0.437187
vt 0.685051 -0.009794
vt 0.975573 0.416137
vt 0.685951 -0.034008
vt 0.976386 0.436375
vt 0.685951 -0.009794
vt 0.976386 0.416137
vt 0.686764 -0.033196
vt 0.977031 0.43573
vt 0.686764 -0.009794
vt 0.977031 0.416137
vt 0.687409 -0.032551
vt 0.977446 0.435315
vt 0.687409 -0.009794
vt 0.977446 0.416137
vt 0.687824 -0.032136
vt 0.687824 -0.009794
vn 0.8090171162905557 0 0.5877850844899974
vn 0.5877850844899974 0 0.8090171162905557
vn 0.3090168573056278 0 0.9510565608316645
vn 0.9510565608316645 0 0.3090168573056278
vn 0 -0.8090171162905558 0.5877850844899972
vn 0 -0.5877850844899977 0.8090171162905556
vn 0 -0.309016857305628 0.9510565608316643
vn 0.0784590266929423 0 0.9969173391662902
vn 0.9969173391662902 0 0.0784590266929423
vn 0 -0.9510565608316646 0.30901685730562756
vn 0 -0.07845902669294252 0.9969173391662902
vn -0.021816999584026178 0 0.9997619809380383
vn 1 0 0
vn 0 -0.9969173391662902 0.07845902669294208
vn 0 0.021816999584025956 0.9997619809380383
vn -0.22709892866994094 0 0.9738716941142529
vn 0 0 1
vn 0 -1 0
vn 0 0.22709892866994077 0.9738716941142531
vn -0.5646550209052232 0 0.8253270305560833
vn -0.9969173391662902 0 0.0784590266929423
vn -1 0 0
vn 0 0.564655020905223 0.8253270305560834
vn 0 1 0
vn 0 0.9969173391662902 0.07845902669294252
vn -0.8254131599609589 0 0.5645291094029293
vn -0.9510565608316645 0 0.3090168573056278
vn 0 0.8254131599609588 0.5645291094029296
vn 0 0.9510565608316643 0.309016857305628
vn -0.9739063898859708 0 0.22695009085540194
vn 0 0.9739063898859708 0.22695009085540216
vn -0.8090171162905557 0 0.5877850844899974
vn 0 0.8090171162905556 0.5877850844899977
vn -0.9997636366974576 0 0.021740992099574925
vn 0 0.9997636366974576 0.021740992099575147
vn -0.5877850844899974 0 0.8090171162905557
vn 0 0.5877850844899972 0.8090171162905558
vn -0.9969173391662902 0 -0.0784590266929423
vn 0 0.9969173391662902 -0.07845902669294208
vn -0.3090168573056278 0 0.9510565608316645
vn 0 0.30901685730562756 0.9510565608316646
vn -0.9510565608316645 0 -0.3090168573056278
vn 0 0.9510565608316646 -0.30901685730562756
vn -0.0781989820359364 0 0.9969377709809891
vn 0 0.0781989820359362 0.9969377709809892
vn -0.8090171162905557 0 -0.5877850844899974
vn 0 0.8090171162905558 -0.5877850844899972
vn -0.03986100934051183 0 0.9992052341407924
vn 0 0.03986100934051161 0.9992052341407924
vn -0.5877850844899974 0 -0.8090171162905557
vn 0 0.5877850844899977 -0.8090171162905556
vn -0.10970996064726361 0 0.993963643467293
vn 0 0.10970996064726339 0.993963643467293
vn -0.3090168573056278 0 -0.9510565608316645
vn 0 0.309016857305628 -0.9510565608316643
vn -0.16845602892247077 0 0.9857091692379004
vn 0 0.16845602892247055 0.9857091692379004
vn -0.0784590266929423 0 -0.9969173391662902
vn 0 0.07845902669294252 -0.9969173391662902
vn -0.2266099070564189 0 0.9739856005218359
vn 0 0.22660990705641867 0.9739856005218359
vn 0 0 -1
vn -0.28396609531153205 0 0.958834321827041
vn 0 0.28396609531153183 0.9588343218270411
vn -0.3403228707096644 0 0.940308642772113
vn 0 0.3403228707096641 0.9403086427721129
vn -0.3725729611894492 0 0.9280029033308707
vn 0 0.37257296118944894 0.9280029033308705
vn -0.2549120630856452 0 0.9669642393043395
vn 0 0.25491206308564496 0.9669642393043396
vn 0.014007998363389614 0 0.9999018831774702
vn 0 -0.014007998363389836 0.9999018831774702
vn 0.3086658501740957 0 0.9511705383033595
vn 0 -0.3086658501740959 0.9511705383033594
vn 0.587187803660579 0 0.8094507293419813
vn 0 -0.5871878036605792 0.8094507293419811
vn 0.8083652857628376 0 0.5886812081029646
vn 0 -0.8083652857628377 0.5886812081029644
vn 0.9505991634831076 0 0.3104210533859069
vn 0 -0.9505991634831077 0.3104210533859067
vn 0.9968518313959844 0 0.07928698658967773
vn 0 -0.9968518313959844 0.0792869865896775
vn 0.021816999584026178 0 -0.9997619809380383
vn 0 -0.021816999584025956 -0.9997619809380383
vn 0.22709892866994094 0 -0.9738716941142529
vn 0 -0.22709892866994077 -0.9738716941142531
vn 0.5646550209052232 0 -0.8253270305560833
vn 0.9969173391662902 0 -0.0784590266929423
vn 0 -0.564655020905223 -0.8253270305560834
vn 0 -0.9969173391662902 -0.07845902669294252
vn 0.8254131599609589 0 -0.5645291094029293
vn 0.9510565608316645 0 -0.3090168573056278
vn 0 -0.8254131599609588 -0.5645291094029296
vn 0 -0.9510565608316643 -0.309016857305628
vn 0.9739063898859708 0 -0.22695009085540194
vn 0 -0.9739063898859708 -0.22695009085540216
vn 0.8090171162905557 0 -0.5877850844899974
vn 0 -0.8090171162905556 -0.5877850844899977
vn 0.9997636366974576 0 -0.021740992099574925
vn 0 -0.9997636366974576 -0.021740992099575147
vn 0.5877850844899974 0 -0.8090171162905557
vn 0 -0.5877850844899972 -0.8090171162905558
vn 0.3090168573056278 0 -0.9510565608316645
vn 0 -0.30901685730562756 -0.9510565608316646
vn 0.0781989820359364 0 -0.9969377709809891
vn 0 -0.0781989820359362 -0.9969377709809892
vn 0.03986100934051183 0 -0.9992052341407924
vn 0 -0.03986100934051161 -0.9992052341407924
vn 0.10970996064726361 0 -0.993963643467293
vn 0 -0.10970996064726339 -0.993963643467293
vn 0.16845602892247077 0 -0.9857091692379004
vn 0 -0.16845602892247055 -0.9857091692379004
vn 0.2266099070564189 0 -0.9739856005218359
vn 0 -0.22660990705641867 -0.9739856005218359
vn 0.28396609531153205 0 -0.958834321827041
vn 0 -0.28396609531153183 -0.9588343218270411
vn 0.3403228707096644 0 -0.940308642772113
vn 0 -0.3403228707096641 -0.9403086427721129
vn 0.3725729611894492 0 -0.9280029033308707
vn 0 -0.37257296118944894 -0.9280029033308705
vn 0.2549120630856452 0 -0.9669642393043395
vn 0 -0.25491206308564496 -0.9669642393043396
vn -0.014007998363389614 0 -0.9999018831774702
vn 0 0.014007998363389836 -0.9999018831774702
vn -0.3086658501740957 0 -0.9511705383033595
vn 0 0.3086658501740959 -0.9511705383033594
vn -0.587187803660579 0 -0.8094507293419813
vn 0 0.5871878036605792 -0.8094507293419811
vn -0.8083652857628376 0 -0.5886812081029646
vn 0 0.8083652857628377 -0.5886812081029644
vn -0.9505991634831076 0 -0.3104210533859069
vn 0 0.9505991634831077 -0.3104210533859067
vn -0.9968518313959844 0 -0.07928698658967773
vn 0 0.9968518313959844 -0.0792869865896775
usemtl material_0_0
f 1/1/1 2/2/2 3/3/2
f 2/2/2 1/1/1 4/4/1
f 2/2/2 5/5/3 3/3/2
f 6/6/4 4/4/1 1/1/1
f 4/7/5 7/8/6 2/9/6
f 5/5/3 2/2/2 8/10/3
f 4/4/1 6/6/4 9/11/4
f 7/8/6 4/7/5 10/12/5
f 11/13/7 2/9/6 7/8/6
f 2/9/6 11/13/7 8/14/7
f 8/10/3 12/15/8 5/5/3
f 13/16/9 9/11/4 6/6/4
f 9/17/10 10/12/5 4/7/5
f 14/18/11 8/14/7 11/13/7
f 12/15/8 8/10/3 15/19/8
f 9/11/4 13/16/9 16/20/9
f 10/12/5 9/17/10 17/21/10
f 8/14/7 14/18/11 15/22/11
f 15/19/8 18/23/12 12/15/8
f 19/16/13 16/20/9 13/16/9
f 16/24/14 17/21/10 9/17/10
f 20/25/15 15/22/11 14/18/11
f 18/23/12 15/19/8 21/26/12
f 16/20/9 19/16/13 22/20/13
f 17/21/10 16/24/14 23/27/14
f 15/22/11 20/25/15 21/28/15
f 21/26/12 24/29/16 18/23/12
f 19/16/17 25/30/17 22/20/17
f 26/27/18 16/24/14 22/24/18
f 16/24/14 26/27/18 23/27/14
f 27/31/19 21/28/15 20/25/15
f 24/29/16 21/26/12 28/32/16
f 25/30/17 19/16/17 29/33/17
f 25/34/17 26/27/17 22/24/17
f 21/28/15 27/31/19 28/35/19
f 28/32/16 30/36/20 24/29/16
f 31/33/21 25/30/22 29/33/22
f 26/27/17 25/34/17 32/37/17
f 33/38/23 28/35/19 27/31/19
f 30/36/20 28/32/16 34/39/20
f 25/30/22 31/33/21 35/30/21
f 25/34/24 36/37/25 32/37/24
f 28/35/19 33/38/23 34/40/23
f 37/41/26 30/36/20 34/39/20
f 38/42/27 35/30/21 31/33/21
f 36/37/25 25/34/24 35/34/25
f 39/43/28 34/40/23 33/38/23
f 30/36/20 37/41/26 40/44/26
f 34/40/23 39/43/28 37/45/28
f 35/30/21 38/42/27 41/46/27
f 41/47/29 36/37/25 35/34/25
f 37/41/26 42/48/30 40/44/26
f 43/49/31 37/45/28 39/43/28
f 44/50/32 41/46/27 38/42/27
f 36/37/25 41/47/29 45/51/29
f 42/48/30 37/41/26 46/52/30
f 37/45/28 43/49/31 46/53/31
f 41/46/27 44/50/32 47/54/32
f 47/55/33 45/51/29 41/47/29
f 48/56/34 42/48/30 46/52/30
f 49/57/35 46/53/31 43/49/31
f 50/58/36 47/54/32 44/50/32
f 45/51/29 47/55/33 51/59/33
f 42/48/30 48/56/34 52/60/34
f 46/53/31 49/57/35 48/61/35
f 47/54/32 50/58/36 53/62/36
f 53/63/37 51/59/33 47/55/33
f 54/56/38 52/60/34 48/56/34
f 49/57/35 54/61/39 48/61/35
f 50/58/36 55/64/40 53/62/36
f 51/59/33 53/63/37 56/65/37
f 52/60/34 54/56/38 57/60/38
f 54/61/39 49/57/35 58/57/39
f 55/64/40 50/58/36 59/66/40
f 55/67/41 56/65/37 53/63/37
f 60/68/42 57/60/38 54/56/38
f 58/57/39 60/69/43 54/61/39
f 59/66/40 61/70/44 55/64/40
f 56/65/37 55/67/41 62/71/41
f 57/60/38 60/68/42 63/72/42
f 60/69/43 58/57/39 64/73/43
f 61/70/44 59/66/40 65/74/44
f 61/75/45 62/71/41 55/67/41
f 60/68/42 66/76/46 63/72/42
f 64/73/43 67/77/47 60/69/43
f 65/74/44 68/78/48 61/70/44
f 62/71/41 61/75/45 69/79/45
f 66/76/46 60/68/42 67/80/46
f 67/77/47 64/73/43 70/81/47
f 68/78/48 65/74/44 71/82/48
f 68/83/49 69/79/45 61/75/45
f 72/84/50 66/76/46 67/80/46
f 70/81/47 72/85/51 67/77/47
f 71/82/48 73/86/52 68/78/48
f 69/79/45 68/83/49 74/87/49
f 66/76/46 72/84/50 75/88/50
f 72/85/51 70/81/47 76/89/51
f 73/86/52 71/82/48 77/90/52
f 73/91/53 74/87/49 68/83/49
f 72/84/50 78/92/54 75/88/50
f 79/93/55 72/85/51 76/89/51
f 77/90/52 80/94/56 73/86/52
f 74/87/49 73/91/53 81/95/53
f 78/92/54 72/84/50 82/96/54
f 72/85/51 79/93/55 82/97/55
f 80/94/56 77/90/52 83/98/56
f 80/99/57 81/95/53 73/91/53
f 82/96/54 84/100/58 78/92/54
f 85/101/59 82/97/55 79/93/55
f 83/98/56 86/102/60 80/94/56
f 81/95/53 80/99/57 87/103/57
f 84/100/58 82/96/54 88/104/58
f 82/97/55 85/101/59 88/105/59
f 86/102/60 83/98/56 89/106/60
f 86/107/61 87/103/57 80/99/57
f 88/104/58 90/108/62 84/100/58
f 85/101/59 91/109/62 88/105/59
f 89/106/60 92/110/63 86/102/60
f 87/103/57 86/107/61 93/111/61
f 90/108/62 88/104/58 91/112/62
f 91/109/62 85/101/59 94/113/62
f 92/110/63 89/106/60 95/114/63
f 92/115/64 93/111/61 86/107/61
f 96/112/13 90/108/13 91/112/13
f 94/113/18 96/109/18 91/109/18
f 95/114/63 97/116/65 92/110/63
f 93/111/61 92/115/64 98/117/64
f 90/108/13 96/112/13 99/108/13
f 96/109/18 94/113/18 100/113/18
f 97/116/65 95/114/63 101/118/65
f 97/119/66 98/117/64 92/115/64
f 96/112/62 102/120/62 99/108/62
f 102/120/62 96/112/62 100/121/62
f 101/118/65 103/122/67 97/116/65
f 98/117/64 97/119/66 104/123/66
f 103/122/67 101/118/65 105/124/67
f 103/125/68 104/123/66 97/119/66
f 105/124/67 106/126/69 103/122/67
f 104/123/66 103/125/68 107/127/68
f 106/126/69 105/124/67 108/128/69
f 106/129/70 107/127/68 103/125/68
f 108/128/69 109/130/71 106/126/69
f 107/127/68 106/129/70 110/131/70
f 109/130/71 108/128/69 111/132/71
f 109/133/72 110/131/70 106/129/70
f 111/132/71 112/134/73 109/130/71
f 110/131/70 109/133/72 113/135/72
f 112/134/73 111/132/71 114/136/73
f 112/137/74 113/135/72 109/133/72
f 114/136/73 115/138/75 112/134/73
f 113/135/72 112/137/74 116/139/74
f 115/138/75 114/136/73 117/140/75
f 115/141/76 116/139/74 112/137/74
f 117/140/75 118/142/77 115/138/75
f 116/139/74 115/141/76 119/143/76
f 118/142/77 117/140/75 120/144/77
f 118/145/78 119/143/76 115/141/76
f 120/144/77 121/146/79 118/142/77
f 119/143/76 118/145/78 122/147/78
f 121/146/79 120/144/77 123/148/79
f 121/149/80 122/147/78 118/145/78
f 124/108/81 121/146/79 123/148/79
f 122/147/78 121/149/80 125/150/80
f 121/146/79 124/108/81 126/112/81
f 126/109/82 125/150/80 121/149/80
f 124/108/81 127/112/13 126/112/81
f 125/150/80 126/109/82 128/113/82
f 127/112/13 124/108/81 129/108/13
f 130/113/18 126/109/82 127/109/18
f 126/109/82 130/113/18 128/113/82
f 129/108/17 130/121/17 127/112/17
f 130/121/17 129/108/17 131/120/17
usemtl material_1_0
f 3//50 2//50 1//46
f 4//46 1//46 2//50
f 3//50 5//54 2//50
f 1//46 4//46 6//42
f 2//51 7//51 4//47
f 8//54 2//50 5//54
f 9//42 6//42 4//46
f 10//47 4//47 7//51
f 7//51 2//51 11//55
f 8//55 11//55 2//51
f 5//54 12//58 8//54
f 6//42 9//42 13//38
f 4//47 10//47 9//43
f 11//55 8//55 14//59
f 15//58 8//54 12//58
f 16//38 13//38 9//42
f 17//43 9//43 10//47
f 15//59 14//59 8//55
f 12//58 18//83 15//58
f 13//38 16//38 19//22
f 9//43 17//43 16//39
f 14//59 15//59 20//84
f 21//83 15//58 18//83
f 22//22 19//22 16//38
f 23//39 16//39 17//43
f 21//84 20//84 15//59
f 18//83 24//85 21//83
f 22//62 25//62 19//62
f 22//24 16//39 26//24
f 23//39 26//24 16//39
f 20//84 21//84 27//86
f 28//85 21//83 24//85
f 29//62 19//62 25//62
f 22//62 26//62 25//62
f 28//86 27//86 21//84
f 24//85 30//87 28//85
f 29//13 25//13 31//88
f 32//62 25//62 26//62
f 27//86 28//86 33//89
f 34//87 28//85 30//87
f 35//88 31//88 25//13
f 32//18 36//90 25//18
f 34//89 33//89 28//86
f 34//87 30//87 37//91
f 31//88 35//88 38//92
f 35//90 25//18 36//90
f 33//89 34//89 39//93
f 40//91 37//91 30//87
f 37//93 39//93 34//89
f 41//92 38//92 35//88
f 35//90 36//90 41//94
f 40//91 42//95 37//91
f 39//93 37//93 43//96
f 38//92 41//92 44//97
f 45//94 41//94 36//90
f 46//95 37//91 42//95
f 46//96 43//96 37//93
f 47//97 44//97 41//92
f 41//94 45//94 47//98
f 46//95 42//95 48//99
f 43//96 46//96 49//100
f 44//97 47//97 50//101
f 51//98 47//98 45//94
f 52//99 48//99 42//95
f 48//100 49//100 46//96
f 53//101 50//101 47//97
f 47//98 51//98 53//102
f 48//99 52//99 54//9
f 48//100 54//14 49//100
f 53//101 55//103 50//101
f 56//102 53//102 51//98
f 57//9 54//9 52//99
f 58//14 49//100 54//14
f 59//103 50//101 55//103
f 53//102 56//102 55//104
f 54//9 57//9 60//4
f 54//14 60//10 58//14
f 55//103 61//105 59//103
f 62//104 55//104 56//102
f 63//4 60//4 57//9
f 64//10 58//14 60//10
f 65//105 59//103 61//105
f 55//104 62//104 61//106
f 63//4 66//1 60//4
f 60//10 67//5 64//10
f 61//105 68//107 65//105
f 69//106 61//106 62//104
f 67//1 60//4 66//1
f 70//5 64//10 67//5
f 71//107 65//105 68//107
f 61//106 69//106 68//108
f 67//1 66//1 72//2
f 67//5 72//6 70//5
f 68//107 73//109 71//107
f 74//108 68//108 69//106
f 75//2 72//2 66//1
f 76//6 70//5 72//6
f 77//109 71//107 73//109
f 68//108 74//108 73//110
f 75//2 78//3 72//2
f 76//6 72//6 79//7
f 73//109 80//111 77//109
f 81//110 73//110 74//108
f 82//3 72//2 78//3
f 82//7 79//7 72//6
f 83//111 77//109 80//111
f 73//110 81//110 80//112
f 78//3 84//8 82//3
f 79//7 82//7 85//11
f 80//111 86//113 83//111
f 87//112 80//112 81//110
f 88//8 82//3 84//8
f 88//11 85//11 82//7
f 89//113 83//111 86//113
f 80//112 87//112 86//114
f 84//8 90//17 88//8
f 88//11 91//17 85//11
f 86//113 92//115 89//113
f 93//114 86//114 87//112
f 91//17 88//8 90//17
f 94//17 85//11 91//17
f 95//115 89//113 92//115
f 86//114 93//114 92//116
f 91//22 90//22 96//22
f 91//24 96//24 94//24
f 92//115 97//117 95//115
f 98//116 92//116 93//114
f 99//22 96//22 90//22
f 100//24 94//24 96//24
f 101//117 95//115 97//117
f 92//116 98//116 97//118
f 99//17 102//17 96//17
f 100//17 96//17 102//17
f 97//117 103//119 101//117
f 104//118 97//118 98//116
f 105//119 101//117 103//119
f 97//118 104//118 103//120
f 103//119 106//121 105//119
f 107//120 103//120 104//118
f 108//121 105//119 106//121
f 103//120 107//120 106//122
f 106//121 109//123 108//121
f 110//122 106//122 107//120
f 111//123 108//121 109//123
f 106//122 110//122 109//124
f 109//123 112//125 111//123
f 113//124 109//124 110//122
f 114//125 111//123 112//125
f 109//124 113//124 112//126
f 112//125 115//127 114//125
f 116//126 112//126 113//124
f 117//127 114//125 115//127
f 112//126 116//126 115//128
f 115//127 118//129 117//127
f 119//128 115//128 116//126
f 120//129 117//127 118//129
f 115//128 119//128 118//130
f 118//129 121//131 120//129
f 122//130 118//130 119//128
f 123//131 120//129 121//131
f 118//130 122//130 121//132
f 123//131 121//131 124//133
f 125//132 121//132 122//130
f 126//133 124//133 121//131
f 121//132 125//132 126//134
f 126//133 127//22 124//133
f 128//134 126//134 125//132
f 129//22 124//133 127//22
f 127//24 126//134 130//24
f 128//134 130//24 126//134
f 127//62 130//62 129//62
f 131//62 129//62 130//62
