# SSTK version 0.8.0
# 73
mtllib original-73.mtl
o DF_12_CR2/DF_12_CR/mesh34/mesh34-geometry#mesh34-geometry
v -0.351177 0.376304 0.239881
v -0.353730 0.292395 0.239881
v -0.351177 0.292395 0.239881
v -0.353730 0.376304 0.239881
v -0.350545 0.376304 0.239853
v -0.354331 0.292395 0.239786
v -0.350545 0.292395 0.239853
v -0.354331 0.376304 0.239786
v -0.349966 0.376304 0.239598
v -0.354873 0.376304 0.239509
v -0.349966 0.292395 0.239598
v -0.354873 0.292395 0.239509
v -0.349519 0.292395 0.239151
v -0.355303 0.376304 0.239079
v -0.349519 0.376304 0.239151
v -0.355303 0.292395 0.239079
v -0.349265 0.292395 0.238572
v -0.355579 0.376304 0.238537
v -0.349265 0.376304 0.238572
v -0.355579 0.292395 0.238537
v -0.349237 0.292395 0.237941
v -0.355674 0.376304 0.237937
v -0.349237 0.376304 0.237941
v -0.355674 0.292395 0.237937
v -0.349237 0.292395 0.226169
v -0.355674 0.376304 0.237294
v -0.349237 0.376304 0.226169
v -0.355674 0.292395 0.237294
v -0.349332 0.292395 0.225569
v -0.357650 0.292395 0.237294
v -0.349332 0.376304 0.225569
v -0.357650 0.376304 0.237294
v -0.349608 0.292395 0.225027
v -0.357650 0.376304 0.238346
v -0.349608 0.376304 0.225027
v -0.357650 0.292395 0.238346
v -0.350038 0.292395 0.224596
v -0.357694 0.376304 0.238621
v -0.350038 0.376304 0.224596
v -0.357694 0.292395 0.238621
v -0.350580 0.376304 0.224320
v -0.357820 0.376304 0.238868
v -0.350580 0.292395 0.224320
v -0.357820 0.292395 0.238868
v -0.351181 0.376304 0.224225
v -0.358016 0.292395 0.239064
v -0.351181 0.292395 0.224225
v -0.358016 0.376304 0.239064
v -0.395831 0.376304 0.224225
v -0.358264 0.292395 0.239191
v -0.395831 0.292395 0.224225
v -0.358264 0.376304 0.239191
v -0.395831 0.292395 0.225320
v -0.358538 0.292395 0.239234
v -0.395831 0.376304 0.225320
v -0.358538 0.376304 0.239234
v -0.435249 0.376304 0.225320
v -0.367135 0.292395 0.239221
v -0.435249 0.292395 0.225320
v -0.367135 0.376304 0.239221
v -0.371044 0.292395 0.239536
v -0.371044 0.376304 0.239536
v -0.374928 0.292395 0.240082
v -0.374928 0.376304 0.240082
v -0.378773 0.292395 0.240857
v -0.378773 0.376304 0.240857
v -0.382565 0.292395 0.241858
v -0.382565 0.376304 0.241858
v -0.386291 0.292395 0.243083
v -0.386291 0.376304 0.243083
v -0.389938 0.292395 0.244527
v -0.389938 0.376304 0.244527
v -0.390906 0.292395 0.244921
v -0.390906 0.376304 0.244921
v -0.391942 0.292395 0.245055
v -0.391942 0.376304 0.245055
v -0.393143 0.292395 0.244865
v -0.393143 0.376304 0.244865
v -0.394226 0.292395 0.244314
v -0.394226 0.376304 0.244314
v -0.395086 0.292395 0.243456
v -0.395086 0.376304 0.243456
v -0.395639 0.376304 0.242374
v -0.395639 0.292395 0.242374
v -0.395831 0.376304 0.241174
v -0.395831 0.292395 0.241174
v -0.395831 0.376304 0.233085
v -0.395831 0.292395 0.233085
v -0.435249 0.292395 0.233085
v -0.435249 0.376304 0.233085
vt 0.306511 0.113963
vt 0.353828 0.112048
vt 0.353828 0.113963
vt 0.306511 0.112048
vt 0.306511 0.114437
vt 0.353828 0.111598
vt 0.353828 0.114437
vt 0.306511 0.111598
vt 0.306511 0.114871
vt 0.306511 0.111191
vt 0.353828 0.114871
vt 0.353828 0.111191
vt 0.353828 0.115207
vt 0.306511 0.110868
vt 0.306511 0.115207
vt 0.353828 0.110868
vt 0.353828 0.115398
vt 0.306511 0.110661
vt 0.306511 0.115398
vt 0.353828 0.110661
vt 0.353828 0.115418
vt 0.306511 0.11059
vt 0.306511 0.115418
vt 0.353828 0.11059
vt 0.353828 0.115347
vt 0.353828 0.109107
vt 0.306511 0.115347
vt 0.306511 0.109107
vt 0.353828 0.11514
vt 0.306511 0.11514
vt 0.353828 0.114817
vt 0.306511 0.109075
vt 0.306511 0.114817
vt 0.353828 0.109075
vt 0.306511 0.114411
vt 0.306511 0.10898
vt 0.353828 0.114411
vt 0.353828 0.10898
vt 0.306511 0.11396
vt 0.353828 0.108833
vt 0.353828 0.11396
vt 0.306511 0.108833
vt 0.306511 0.080468
vt 0.353828 0.108647
vt 0.353828 0.080468
vt 0.306511 0.108647
vt 0.353828 0.108442
vt 0.306511 0.108442
vt 0.306511 0.050899
vt 0.353828 0.101993
vt 0.353828 0.050899
vt 0.306511 0.101993
vt 0.353828 0.09906
vt 0.306511 0.09906
vt 0.353828 0.096147
vt 0.306511 0.096147
vt 0.353828 0.093263
vt 0.306511 0.093263
vt 0.353828 0.090419
vt 0.306511 0.090419
vt 0.353828 0.087624
vt 0.306511 0.087624
vt 0.353828 0.084888
vt 0.306511 0.084888
vt 0.353828 0.084162
vt 0.306511 0.084162
vt 0.353828 0.083384
vt 0.306511 0.083384
vt 0.353828 0.082484
vt 0.306511 0.082484
vt 0.353828 0.081672
vt 0.306511 0.081672
vt 0.353828 0.081027
vt 0.306511 0.081027
vt 0.306511 0.080612
vt 0.353828 0.080612
vn 0.021816999584026178 0 0.9997619809380383
vn -0.0784590266929423 0 0.9969173391662902
vn 0.22709892866994094 0 0.9738716941142529
vn -0.3090168573056278 0 0.9510565608316645
vn 0.5646550209052232 0 0.8253270305560833
vn -0.5877850844899974 0 0.8090171162905557
vn 0.8254131599609589 0 0.5645291094029293
vn -0.8090171162905557 0 0.5877850844899974
vn 0.9739063898859708 0 0.22695009085540194
vn -0.9510565608316645 0 0.3090168573056278
vn 0.9997636366974576 0 0.021740992099574925
vn -0.9969173391662902 0 0.0784590266929423
vn 0.9969173391662902 0 -0.0784590266929423
vn -1 0 0
vn 0.9510565608316645 0 -0.3090168573056278
vn 0 0 1
vn 0.8090171162905557 0 -0.5877850844899974
vn 0.9969173391662902 0 0.0784590266929423
vn 1 0 0
vn 0.5877850844899974 0 -0.8090171162905557
vn 0.9510565608316645 0 0.3090168573056278
vn 0.3090168573056278 0 -0.9510565608316645
vn 0.8090171162905557 0 0.5877850844899974
vn 0.0784590266929423 0 -0.9969173391662902
vn 0.5877850844899974 0 0.8090171162905557
vn 0 0 -1
vn 0.3090168573056278 0 0.9510565608316645
vn 0.07772896315391516 0 0.9969745274012859
vn 0.03938999656763463 0 0.9992239129296305
vn 0.10970996064726361 0 0.993963643467293
vn 0.16845602892247077 0 0.9857091692379004
vn 0.2266099070564189 0 0.9739856005218359
vn 0.28396609531153205 0 0.958834321827041
vn 0.3403228707096644 0 0.940308642772113
vn 0.3725729611894492 0 0.9280029033308707
vn 0.2549120630856452 0 0.9669642393043395
vn -0.014007998363389614 0 0.9999018831774702
vn -0.3086658501740957 0 0.9511705383033595
vn -0.587187803660579 0 0.8094507293419813
vn -0.8083652857628376 0 0.5886812081029646
vn -0.9505991634831076 0 0.3104210533859069
vn -0.9968518313959844 0 0.07928698658967773
vn -0.021816999584026178 0 -0.9997619809380383
vn -0.22709892866994094 0 -0.9738716941142529
vn -0.5646550209052232 0 -0.8253270305560833
vn -0.8254131599609589 0 -0.5645291094029293
vn -0.9739063898859708 0 -0.22695009085540194
vn -0.9997636366974576 0 -0.021740992099574925
vn -0.9969173391662902 0 -0.0784590266929423
vn -0.9510565608316645 0 -0.3090168573056278
vn -0.8090171162905557 0 -0.5877850844899974
vn -0.5877850844899974 0 -0.8090171162905557
vn -0.3090168573056278 0 -0.9510565608316645
vn -0.07772896315391516 0 -0.9969745274012859
vn -0.03938999656763463 0 -0.9992239129296305
vn -0.10970996064726361 0 -0.993963643467293
vn -0.16845602892247077 0 -0.9857091692379004
vn -0.2266099070564189 0 -0.9739856005218359
vn -0.28396609531153205 0 -0.958834321827041
vn -0.3403228707096644 0 -0.940308642772113
vn -0.3725729611894492 0 -0.9280029033308707
vn -0.2549120630856452 0 -0.9669642393043395
vn 0.014007998363389614 0 -0.9999018831774702
vn 0.3086658501740957 0 -0.9511705383033595
vn 0.587187803660579 0 -0.8094507293419813
vn 0.8083652857628376 0 -0.5886812081029646
vn 0.9505991634831076 0 -0.3104210533859069
vn 0.9968518313959844 0 -0.07928698658967773
usemtl material_0_0
f 1/1/1 2/2/2 3/3/1
f 2/2/2 1/1/1 4/4/2
f 3/3/1 5/5/3 1/1/1
f 4/4/2 6/6/4 2/2/2
f 5/5/3 3/3/1 7/7/3
f 6/6/4 4/4/2 8/8/4
f 7/7/3 9/9/5 5/5/3
f 10/10/6 6/6/4 8/8/4
f 9/9/5 7/7/3 11/11/5
f 6/6/4 10/10/6 12/12/6
f 13/13/7 9/9/5 11/11/5
f 14/14/8 12/12/6 10/10/6
f 9/9/5 13/13/7 15/15/7
f 12/12/6 14/14/8 16/16/8
f 17/17/9 15/15/7 13/13/7
f 18/18/10 16/16/8 14/14/8
f 15/15/7 17/17/9 19/19/9
f 16/16/8 18/18/10 20/20/10
f 21/21/11 19/19/9 17/17/9
f 22/22/12 20/20/10 18/18/10
f 19/19/9 21/21/11 23/23/11
f 20/20/10 22/22/12 24/24/12
f 25/21/13 23/23/11 21/21/11
f 26/22/14 24/24/12 22/22/12
f 23/23/11 25/21/13 27/23/13
f 24/24/12 26/22/14 28/24/14
f 29/25/15 27/23/13 25/21/13
f 26/22/16 30/26/16 28/24/16
f 27/23/13 29/25/15 31/27/15
f 30/26/16 26/22/16 32/28/16
f 33/29/17 31/27/15 29/25/15
f 34/28/18 30/26/19 32/28/19
f 31/27/15 33/29/17 35/30/17
f 30/26/19 34/28/18 36/26/18
f 37/31/20 35/30/17 33/29/17
f 38/32/21 36/26/18 34/28/18
f 35/30/17 37/31/20 39/33/20
f 36/26/18 38/32/21 40/34/21
f 37/31/20 41/35/22 39/33/20
f 42/36/23 40/34/21 38/32/21
f 41/35/22 37/31/20 43/37/22
f 40/34/21 42/36/23 44/38/23
f 43/37/22 45/39/24 41/35/22
f 42/36/23 46/40/25 44/38/23
f 45/39/24 43/37/22 47/41/24
f 46/40/25 42/36/23 48/42/25
f 47/41/24 49/43/26 45/39/24
f 48/42/25 50/44/27 46/40/25
f 49/43/26 47/41/24 51/45/26
f 50/44/27 48/42/25 52/46/27
f 53/45/14 49/43/14 51/45/14
f 52/46/27 54/47/28 50/44/27
f 49/43/14 53/45/14 55/43/14
f 54/47/28 52/46/27 56/48/28
f 53/45/26 57/49/26 55/43/26
f 56/48/28 58/50/29 54/47/28
f 57/49/26 53/45/26 59/51/26
f 58/50/29 56/48/28 60/52/29
f 60/52/29 61/53/30 58/50/29
f 61/53/30 60/52/29 62/54/30
f 62/54/30 63/55/31 61/53/30
f 63/55/31 62/54/30 64/56/31
f 64/56/31 65/57/32 63/55/31
f 65/57/32 64/56/31 66/58/32
f 66/58/32 67/59/33 65/57/32
f 67/59/33 66/58/32 68/60/33
f 68/60/33 69/61/34 67/59/33
f 69/61/34 68/60/33 70/62/34
f 70/62/34 71/63/35 69/61/34
f 71/63/35 70/62/34 72/64/35
f 72/64/35 73/65/36 71/63/35
f 73/65/36 72/64/35 74/66/36
f 74/66/36 75/67/37 73/65/36
f 75/67/37 74/66/36 76/68/37
f 76/68/37 77/69/38 75/67/37
f 77/69/38 76/68/37 78/70/38
f 78/70/38 79/71/39 77/69/38
f 79/71/39 78/70/38 80/72/39
f 80/72/39 81/73/40 79/71/39
f 81/73/40 80/72/39 82/74/40
f 83/75/41 81/73/40 82/74/40
f 81/73/40 83/75/41 84/76/41
f 85/43/42 84/76/41 83/75/41
f 84/76/41 85/43/42 86/45/42
f 87/43/14 86/45/42 85/43/42
f 86/45/42 87/43/14 88/45/14
f 87/43/16 89/51/16 88/45/16
f 89/51/16 87/43/16 90/49/16
usemtl material_1_0
f 3//43 2//24 1//43
f 4//24 1//43 2//24
f 1//43 5//44 3//43
f 2//24 6//22 4//24
f 7//44 3//43 5//44
f 8//22 4//24 6//22
f 5//44 9//45 7//44
f 8//22 6//22 10//20
f 11//45 7//44 9//45
f 12//20 10//20 6//22
f 11//45 9//45 13//46
f 10//20 12//20 14//17
f 15//46 13//46 9//45
f 16//17 14//17 12//20
f 13//46 15//46 17//47
f 14//17 16//17 18//15
f 19//47 17//47 15//46
f 20//15 18//15 16//17
f 17//47 19//47 21//48
f 18//15 20//15 22//13
f 23//48 21//48 19//47
f 24//13 22//13 20//15
f 21//48 23//48 25//12
f 22//13 24//13 26//19
f 27//12 25//12 23//48
f 28//19 26//19 24//13
f 25//12 27//12 29//10
f 28//26 30//26 26//26
f 31//10 29//10 27//12
f 32//26 26//26 30//26
f 29//10 31//10 33//8
f 32//14 30//14 34//49
f 35//8 33//8 31//10
f 36//49 34//49 30//14
f 33//8 35//8 37//6
f 34//49 36//49 38//50
f 39//6 37//6 35//8
f 40//50 38//50 36//49
f 39//6 41//4 37//6
f 38//50 40//50 42//51
f 43//4 37//6 41//4
f 44//51 42//51 40//50
f 41//4 45//2 43//4
f 44//51 46//52 42//51
f 47//2 43//4 45//2
f 48//52 42//51 46//52
f 45//2 49//16 47//2
f 46//52 50//53 48//52
f 51//16 47//2 49//16
f 52//53 48//52 50//53
f 51//19 49//19 53//19
f 50//53 54//54 52//53
f 55//19 53//19 49//19
f 56//54 52//53 54//54
f 55//16 57//16 53//16
f 54//54 58//55 56//54
f 59//16 53//16 57//16
f 60//55 56//54 58//55
f 58//55 61//56 60//55
f 62//56 60//55 61//56
f 61//56 63//57 62//56
f 64//57 62//56 63//57
f 63//57 65//58 64//57
f 66//58 64//57 65//58
f 65//58 67//59 66//58
f 68//59 66//58 67//59
f 67//59 69//60 68//59
f 70//60 68//59 69//60
f 69//60 71//61 70//60
f 72//61 70//60 71//61
f 71//61 73//62 72//61
f 74//62 72//61 73//62
f 73//62 75//63 74//62
f 76//63 74//62 75//63
f 75//63 77//64 76//63
f 78//64 76//63 77//64
f 77//64 79//65 78//64
f 80//65 78//64 79//65
f 79//65 81//66 80//65
f 82//66 80//65 81//66
f 82//66 81//66 83//67
f 84//67 83//67 81//66
f 83//67 84//67 85//68
f 86//68 85//68 84//67
f 85//68 86//68 87//19
f 88//19 87//19 86//68
f 88//26 89//26 87//26
f 90//26 87//26 89//26
