# SSTK version 0.8.0
# 87
mtllib original-87.mtl
o DF_12_BC3/DF_12_BC/mesh32/mesh32-geometry#mesh32-geometry
v 0.231318 0.247657 0.239064
v -0.252810 0.247460 0.238868
v 0.231318 0.247460 0.238868
v -0.252810 0.247657 0.239064
v 0.231318 0.247334 0.238621
v 0.231318 0.247904 0.239191
v -0.252810 0.247334 0.238621
v -0.252810 0.247904 0.239191
v 0.231318 0.247291 0.238346
v 0.231318 0.248178 0.239234
v -0.252810 0.247291 0.238346
v -0.252810 0.248178 0.239234
v 0.231318 0.247291 0.237294
v 0.231318 0.256775 0.239221
v -0.252810 0.247291 0.237294
v -0.252810 0.256775 0.239221
v -0.252810 0.245314 0.237294
v 0.231318 0.260685 0.239536
v 0.231318 0.245314 0.237294
v -0.252810 0.260685 0.239536
v 0.231318 0.245314 0.237937
v 0.231318 0.264569 0.240082
v -0.252810 0.245314 0.237937
v -0.252810 0.264569 0.240082
v 0.231318 0.245219 0.238537
v 0.231318 0.268413 0.240857
v -0.252810 0.245219 0.238537
v -0.252810 0.268413 0.240857
v 0.231318 0.244943 0.239079
v 0.231318 0.272206 0.241858
v -0.252810 0.244943 0.239079
v -0.252810 0.272206 0.241858
v -0.252810 0.244513 0.239509
v 0.231318 0.275932 0.243083
v 0.231318 0.244513 0.239509
v -0.252810 0.275932 0.243083
v -0.252810 0.243971 0.239786
v 0.231318 0.279578 0.244527
v 0.231318 0.243971 0.239786
v -0.252810 0.279578 0.244527
v -0.252810 0.243370 0.239881
v 0.231318 0.280546 0.244921
v 0.231318 0.243370 0.239881
v -0.252810 0.280546 0.244921
v -0.252810 0.240818 0.239881
v 0.231318 0.281583 0.245055
v 0.231318 0.240818 0.239881
v -0.252810 0.281583 0.245055
v -0.252810 0.240186 0.239853
v 0.231318 0.282783 0.244865
v 0.231318 0.240186 0.239853
v -0.252810 0.282783 0.244865
v -0.252810 0.239607 0.239598
v 0.231318 0.283866 0.244314
v 0.231318 0.239607 0.239598
v -0.252810 0.283866 0.244314
v 0.231318 0.239160 0.239151
v 0.231318 0.284726 0.243456
v -0.252810 0.239160 0.239151
v -0.252810 0.284726 0.243456
v 0.231318 0.238905 0.238572
v -0.252810 0.285279 0.242374
v -0.252810 0.238905 0.238572
v 0.231318 0.285279 0.242374
v 0.231318 0.238878 0.237941
v -0.252810 0.285471 0.241174
v -0.252810 0.238878 0.237941
v 0.231318 0.285471 0.241174
v 0.231318 0.238878 0.226169
v -0.252810 0.285471 0.233085
v -0.252810 0.238878 0.226169
v 0.231318 0.285471 0.233085
v 0.231318 0.238973 0.225569
v 0.231318 0.292395 0.233085
v -0.252810 0.238973 0.225569
v -0.252810 0.292395 0.233085
v 0.231318 0.239249 0.225027
v -0.252810 0.239249 0.225027
v -0.252810 0.239679 0.224596
v 0.231318 0.239679 0.224596
v -0.252810 0.240221 0.224320
v 0.231318 0.240221 0.224320
v -0.252810 0.240822 0.224225
v 0.231318 0.240822 0.224225
v -0.252810 0.285471 0.224225
v 0.231318 0.285471 0.224225
v 0.231318 0.285471 0.225320
v -0.252810 0.285471 0.225320
v -0.252810 0.292395 0.225320
v 0.231318 0.292395 0.225320
vt 0.387386 0.050899
vt 0.387534 -0.437251
vt 0.387534 0.050899
vt 0.387386 -0.437251
vt 0.387628 0.050899
vt 0.387201 0.050899
vt 0.387628 -0.437251
vt 0.387201 -0.437251
vt 0.387661 0.050899
vt 0.386995 0.050899
vt 0.387661 -0.437251
vt 0.386995 -0.437251
vt 0.380546 0.050899
vt 0.380546 -0.437251
vt 0.389143 -0.437251
vt 0.377614 0.050899
vt 0.389143 0.050899
vt 0.377614 -0.437251
vt 0.3747 0.050899
vt 0.3747 -0.437251
vt 0.389215 0.050899
vt 0.371816 0.050899
vt 0.389215 -0.437251
vt 0.371816 -0.437251
vt 0.389422 0.050899
vt 0.368972 0.050899
vt 0.389422 -0.437251
vt 0.368972 -0.437251
vt 0.389744 -0.437251
vt 0.366177 0.050899
vt 0.389744 0.050899
vt 0.366177 -0.437251
vt 0.390151 -0.437251
vt 0.363441 0.050899
vt 0.390151 0.050899
vt 0.363441 -0.437251
vt 0.390602 -0.437251
vt 0.362715 0.050899
vt 0.390602 0.050899
vt 0.362715 -0.437251
vt 0.392516 -0.437251
vt 0.361938 0.050899
vt 0.392516 0.050899
vt 0.361938 -0.437251
vt 0.39299 -0.437251
vt 0.361037 0.050899
vt 0.39299 0.050899
vt 0.361037 -0.437251
vt 0.393425 -0.437251
vt 0.360225 0.050899
vt 0.393425 0.050899
vt 0.360225 -0.437251
vt 0.39376 0.050899
vt 0.35958 0.050899
vt 0.39376 -0.437251
vt 0.35958 -0.437251
vt 0.393951 0.050899
vt 0.359165 -0.437251
vt 0.393951 -0.437251
vt 0.359165 0.050899
vt 0.393972 0.050899
vt 0.359021 -0.437251
vt 0.393972 -0.437251
vt 0.359021 0.050899
vt 0.3939 0.050899
vt 0.353828 0.050899
vt 0.3939 -0.437251
vt 0.353828 -0.437251
vt 0.393693 0.050899
vt 0.393693 -0.437251
vt 0.39337 -0.437251
vt 0.39337 0.050899
vt 0.392964 -0.437251
vt 0.392964 0.050899
vt 0.392513 -0.437251
vt 0.392513 0.050899
vn 0 -0.5877850844899977 0.8090171162905556
vn 0 -0.8090171162905558 0.5877850844899972
vn 0 -0.9510565608316646 0.30901685730562756
vn 0 -0.309016857305628 0.9510565608316643
vn 0 -0.9969173391662902 0.07845902669294208
vn 0 -0.07772896315391538 0.9969745274012859
vn 0 -1 0
vn 0 -0.03938999656763485 0.9992239129296305
vn 0 0 1
vn 0 -0.10970996064726384 0.993963643467293
vn 0 1 0
vn 0 0.9969173391662902 0.07845902669294252
vn 0 -0.168456028922471 0.9857091692379004
vn 0 0.9510565608316643 0.309016857305628
vn 0 -0.22660990705641912 0.9739856005218359
vn 0 0.8090171162905556 0.5877850844899977
vn 0 -0.28396609531153233 0.9588343218270411
vn 0 0.5877850844899972 0.8090171162905558
vn 0 -0.3403228707096646 0.9403086427721129
vn 0 0.30901685730562756 0.9510565608316646
vn 0 -0.37257296118944944 0.9280029033308705
vn 0 0.07845902669294208 0.9969173391662902
vn 0 -0.25491206308564546 0.9669642393043396
vn 0 -0.0218169995840264 0.9997619809380383
vn 0 0.014007998363389392 0.9999018831774702
vn 0 -0.22709892866994116 0.9738716941142529
vn 0 0.3086658501740955 0.9511705383033596
vn 0 -0.5646550209052235 0.8253270305560831
vn 0 0.5871878036605788 0.8094507293419814
vn 0 -0.825413159960959 0.5645291094029291
vn 0 0.8083652857628374 0.5886812081029648
vn 0 -0.973906389885971 0.22695009085540177
vn 0 0.9505991634831077 0.3104210533859072
vn 0 -0.9997636366974576 0.021740992099574703
vn 0 0.9968518313959844 0.07928698658967795
vn 0 -0.9969173391662902 -0.07845902669294252
vn 0 -0.9510565608316643 -0.309016857305628
vn 0 -0.8090171162905556 -0.5877850844899977
vn 0 -0.5877850844899972 -0.8090171162905558
vn 0 -0.30901685730562756 -0.9510565608316646
vn 0 -0.07845902669294208 -0.9969173391662902
vn 0 0 -1
vn 0 0.8090171162905558 -0.5877850844899972
vn 0 0.5877850844899977 -0.8090171162905556
vn 0 0.9510565608316646 -0.30901685730562756
vn 0 0.309016857305628 -0.9510565608316643
vn 0 0.9969173391662902 -0.07845902669294208
vn 0 0.07772896315391538 -0.9969745274012859
vn 0 0.03938999656763485 -0.9992239129296305
vn 0 0.10970996064726384 -0.993963643467293
vn 0 0.168456028922471 -0.9857091692379004
vn 0 0.22660990705641912 -0.9739856005218359
vn 0 0.28396609531153233 -0.9588343218270411
vn 0 0.3403228707096646 -0.9403086427721129
vn 0 0.37257296118944944 -0.9280029033308705
vn 0 0.25491206308564546 -0.9669642393043396
vn 0 0.0218169995840264 -0.9997619809380383
vn 0 -0.014007998363389392 -0.9999018831774702
vn 0 0.22709892866994116 -0.9738716941142529
vn 0 -0.3086658501740955 -0.9511705383033596
vn 0 0.5646550209052235 -0.8253270305560831
vn 0 -0.5871878036605788 -0.8094507293419814
vn 0 0.825413159960959 -0.5645291094029291
vn 0 -0.8083652857628374 -0.5886812081029648
vn 0 0.973906389885971 -0.22695009085540177
vn 0 -0.9505991634831077 -0.3104210533859072
vn 0 0.9997636366974576 -0.021740992099574703
vn 0 -0.9968518313959844 -0.07928698658967795
usemtl material_0_0
f 1/1/1 2/2/2 3/3/2
f 2/2/2 1/1/1 4/4/1
f 2/2/2 5/5/3 3/3/2
f 6/6/4 4/4/1 1/1/1
f 5/5/3 2/2/2 7/7/3
f 4/4/1 6/6/4 8/8/4
f 7/7/3 9/9/5 5/5/3
f 10/10/6 8/8/4 6/6/4
f 9/9/5 7/7/3 11/11/5
f 8/8/4 10/10/6 12/12/6
f 11/11/5 13/9/7 9/9/5
f 14/13/8 12/12/6 10/10/6
f 13/9/7 11/11/5 15/11/7
f 12/12/6 14/13/8 16/14/8
f 17/15/9 13/9/9 15/11/9
f 18/16/10 16/14/8 14/13/8
f 13/9/9 17/15/9 19/17/9
f 16/14/8 18/16/10 20/18/10
f 17/15/11 21/17/12 19/17/11
f 22/19/13 20/18/10 18/16/10
f 21/17/12 17/15/11 23/15/12
f 20/18/10 22/19/13 24/20/13
f 23/15/12 25/21/14 21/17/12
f 26/22/15 24/20/13 22/19/13
f 25/21/14 23/15/12 27/23/14
f 24/20/13 26/22/15 28/24/15
f 27/23/14 29/25/16 25/21/14
f 30/26/17 28/24/15 26/22/15
f 29/25/16 27/23/14 31/27/16
f 28/24/15 30/26/17 32/28/17
f 33/29/18 29/25/16 31/27/16
f 34/30/19 32/28/17 30/26/17
f 29/25/16 33/29/18 35/31/18
f 32/28/17 34/30/19 36/32/19
f 37/33/20 35/31/18 33/29/18
f 38/34/21 36/32/19 34/30/19
f 35/31/18 37/33/20 39/35/20
f 36/32/19 38/34/21 40/36/21
f 41/37/22 39/35/20 37/33/20
f 42/38/23 40/36/21 38/34/21
f 39/35/20 41/37/22 43/39/22
f 40/36/21 42/38/23 44/40/23
f 45/41/24 43/39/22 41/37/22
f 46/42/25 44/40/23 42/38/23
f 43/39/22 45/41/24 47/43/24
f 44/40/23 46/42/25 48/44/25
f 49/45/26 47/43/24 45/41/24
f 50/46/27 48/44/25 46/42/25
f 47/43/24 49/45/26 51/47/26
f 48/44/25 50/46/27 52/48/27
f 53/49/28 51/47/26 49/45/26
f 54/50/29 52/48/27 50/46/27
f 51/47/26 53/49/28 55/51/28
f 52/48/27 54/50/29 56/52/29
f 53/49/28 57/53/30 55/51/28
f 58/54/31 56/52/29 54/50/29
f 57/53/30 53/49/28 59/55/30
f 56/52/29 58/54/31 60/56/31
f 59/55/30 61/57/32 57/53/30
f 58/54/31 62/58/33 60/56/31
f 61/57/32 59/55/30 63/59/32
f 62/58/33 58/54/31 64/60/33
f 63/59/32 65/61/34 61/57/32
f 64/60/33 66/62/35 62/58/33
f 65/61/34 63/59/32 67/63/34
f 66/62/35 64/60/33 68/64/35
f 67/63/34 69/61/36 65/61/34
f 68/64/35 70/62/11 66/62/35
f 69/61/36 67/63/34 71/63/36
f 70/62/11 68/64/35 72/64/11
f 71/63/36 73/65/37 69/61/36
f 74/66/9 70/62/9 72/64/9
f 73/65/37 71/63/36 75/67/37
f 70/62/9 74/66/9 76/68/9
f 75/67/37 77/69/38 73/65/37
f 77/69/38 75/67/37 78/70/38
f 79/71/39 77/69/38 78/70/38
f 77/69/38 79/71/39 80/72/39
f 81/73/40 80/72/39 79/71/39
f 80/72/39 81/73/40 82/74/40
f 83/75/41 82/74/40 81/73/40
f 82/74/40 83/75/41 84/76/41
f 85/62/42 84/76/41 83/75/41
f 84/76/41 85/62/42 86/64/42
f 85/62/11 87/64/11 86/64/11
f 87/64/11 85/62/11 88/62/11
f 89/68/42 87/64/42 88/62/42
f 87/64/42 89/68/42 90/66/42
usemtl material_1_0
f 3//43 2//43 1//44
f 4//44 1//44 2//43
f 3//43 5//45 2//43
f 1//44 4//44 6//46
f 7//45 2//43 5//45
f 8//46 6//46 4//44
f 5//45 9//47 7//45
f 6//46 8//46 10//48
f 11//47 7//45 9//47
f 12//48 10//48 8//46
f 9//47 13//11 11//47
f 10//48 12//48 14//49
f 15//11 11//47 13//11
f 16//49 14//49 12//48
f 15//42 13//42 17//42
f 14//49 16//49 18//50
f 19//42 17//42 13//42
f 20//50 18//50 16//49
f 19//7 21//36 17//7
f 18//50 20//50 22//51
f 23//36 17//7 21//36
f 24//51 22//51 20//50
f 21//36 25//37 23//36
f 22//51 24//51 26//52
f 27//37 23//36 25//37
f 28//52 26//52 24//51
f 25//37 29//38 27//37
f 26//52 28//52 30//53
f 31//38 27//37 29//38
f 32//53 30//53 28//52
f 31//38 29//38 33//39
f 30//53 32//53 34//54
f 35//39 33//39 29//38
f 36//54 34//54 32//53
f 33//39 35//39 37//40
f 34//54 36//54 38//55
f 39//40 37//40 35//39
f 40//55 38//55 36//54
f 37//40 39//40 41//41
f 38//55 40//55 42//56
f 43//41 41//41 39//40
f 44//56 42//56 40//55
f 41//41 43//41 45//57
f 42//56 44//56 46//58
f 47//57 45//57 43//41
f 48//58 46//58 44//56
f 45//57 47//57 49//59
f 46//58 48//58 50//60
f 51//59 49//59 47//57
f 52//60 50//60 48//58
f 49//59 51//59 53//61
f 50//60 52//60 54//62
f 55//61 53//61 51//59
f 56//62 54//62 52//60
f 55//61 57//63 53//61
f 54//62 56//62 58//64
f 59//63 53//61 57//63
f 60//64 58//64 56//62
f 57//63 61//65 59//63
f 60//64 62//66 58//64
f 63//65 59//63 61//65
f 64//66 58//64 62//66
f 61//65 65//67 63//65
f 62//66 66//68 64//66
f 67//67 63//65 65//67
f 68//68 64//66 66//68
f 65//67 69//12 67//67
f 66//68 70//7 68//68
f 71//12 67//67 69//12
f 72//7 68//68 70//7
f 69//12 73//14 71//12
f 72//42 70//42 74//42
f 75//14 71//12 73//14
f 76//42 74//42 70//42
f 73//14 77//16 75//14
f 78//16 75//14 77//16
f 78//16 77//16 79//18
f 80//18 79//18 77//16
f 79//18 80//18 81//20
f 82//20 81//20 80//18
f 81//20 82//20 83//22
f 84//22 83//22 82//20
f 83//22 84//22 85//9
f 86//9 85//9 84//22
f 86//7 87//7 85//7
f 88//7 85//7 87//7
f 88//9 87//9 89//9
f 90//9 89//9 87//9
