# SSTK version 0.8.0
# 114
mtllib original-114.mtl
o LT_11_CL2/LT_11_CL/mesh44/mesh44-geometry#mesh44-geometry
v -0.276890 -0.305473 0.242374
v -0.277443 0.140964 0.243456
v -0.277443 -0.305473 0.243456
v -0.276890 0.140964 0.242374
v -0.278303 -0.305473 0.244314
v -0.276698 -0.305473 0.241174
v -0.278303 0.140964 0.244314
v -0.276698 0.140964 0.241174
v -0.279386 -0.305473 0.244865
v -0.276698 -0.305473 0.233085
v -0.279386 0.140964 0.244865
v -0.276698 0.140964 0.233085
v -0.280586 -0.305473 0.245055
v -0.247105 0.140964 0.233085
v -0.280586 0.140964 0.245055
v -0.247105 -0.305473 0.233085
v -0.281622 -0.305473 0.244921
v -0.281622 0.140964 0.244921
v -0.282590 -0.305473 0.244527
v -0.282590 0.140964 0.244527
v -0.286237 -0.305473 0.243083
v -0.286237 0.140964 0.243083
v -0.289963 -0.305473 0.241858
v -0.289963 0.140964 0.241858
v -0.293755 -0.305473 0.240857
v -0.293755 0.140964 0.240857
v -0.297600 -0.305473 0.240082
v -0.297600 0.140964 0.240082
v -0.301484 -0.305473 0.239536
v -0.301484 0.140964 0.239536
v -0.305394 -0.305473 0.239221
v -0.305394 0.140964 0.239221
v -0.329521 -0.305473 0.239234
v -0.329521 0.140964 0.239234
v -0.329795 -0.305473 0.239191
v -0.329795 0.140964 0.239191
v -0.330043 -0.305473 0.239064
v -0.330043 0.140964 0.239064
v -0.330239 -0.305473 0.238868
v -0.330239 0.140964 0.238868
v -0.330365 -0.305473 0.238621
v -0.330365 0.140964 0.238621
v -0.330409 -0.305473 0.238346
v -0.330409 0.140964 0.238346
v -0.330409 -0.305473 0.237294
v -0.330409 0.140964 0.237294
v -0.332385 -0.305473 0.237294
v -0.332385 0.140964 0.237294
v -0.332385 0.140964 0.237937
v -0.332385 -0.305473 0.237937
v -0.332480 0.140964 0.238537
v -0.332480 -0.305473 0.238537
v -0.332756 0.140964 0.239079
v -0.332756 -0.305473 0.239079
v -0.333187 0.140964 0.239509
v -0.333187 -0.305473 0.239509
v -0.333728 -0.305473 0.239786
v -0.333728 0.140964 0.239786
v -0.334329 -0.305473 0.239881
v -0.334329 0.140964 0.239881
v -0.336882 -0.305473 0.239881
v -0.336882 0.140964 0.239881
v -0.337514 -0.305473 0.239853
v -0.337514 0.140964 0.239853
v -0.338093 -0.305473 0.239598
v -0.338093 0.140964 0.239598
v -0.338540 -0.305473 0.239151
v -0.338540 0.140964 0.239151
v -0.338794 -0.305473 0.238572
v -0.338794 0.140964 0.238572
v -0.338822 -0.305473 0.237941
v -0.338822 0.140964 0.237941
v -0.338822 -0.305473 0.226169
v -0.338822 0.140964 0.226169
v -0.338727 -0.305473 0.225569
v -0.338727 0.140964 0.225569
v -0.338451 -0.305473 0.225027
v -0.338451 0.140964 0.225027
v -0.338021 -0.305473 0.224596
v -0.338021 0.140964 0.224596
v -0.337479 -0.305473 0.224320
v -0.337479 0.140964 0.224320
v -0.336878 -0.305473 0.224225
v -0.336878 0.140964 0.224225
v -0.276698 -0.305473 0.224225
v -0.276698 0.140964 0.224225
v -0.276698 0.140964 0.225320
v -0.276698 -0.305473 0.225320
v -0.247105 -0.305473 0.225320
v -0.247105 0.140964 0.225320
vt 0.554269 0.065634
vt 0.553854 0.416137
vt 0.553854 0.065634
vt 0.554269 0.416137
vt 0.553209 0.065634
vt 0.554413 0.065634
vt 0.553209 0.416137
vt 0.554413 0.416137
vt 0.552396 0.065634
vt 0.552396 0.416137
vt 0.551496 0.065634
vt 0.576611 0.416137
vt 0.551496 0.416137
vt 0.576611 0.065634
vt 0.550719 0.065634
vt 0.550719 0.416137
vt 0.549992 0.065634
vt 0.549992 0.416137
vt 0.547257 0.065634
vt 0.547257 0.416137
vt 0.544462 0.065634
vt 0.544462 0.416137
vt 0.541617 0.065634
vt 0.541617 0.416137
vt 0.538733 0.065634
vt 0.538733 0.416137
vt 0.53582 0.065634
vt 0.53582 0.416137
vt 0.532887 0.065634
vt 0.532887 0.416137
vt 0.514789 0.065634
vt 0.514789 0.416137
vt 0.514583 0.065634
vt 0.514583 0.416137
vt 0.514398 0.065634
vt 0.514398 0.416137
vt 0.51425 0.065634
vt 0.51425 0.416137
vt 0.514156 0.065634
vt 0.514156 0.416137
vt 0.514123 0.065634
vt 0.514123 0.416137
vt 0.512641 0.065634
vt 0.512641 0.416137
vt 0.512569 0.416137
vt 0.512569 0.065634
vt 0.512362 0.416137
vt 0.512362 0.065634
vt 0.51204 0.416137
vt 0.51204 0.065634
vt 0.511633 0.065634
vt 0.511633 0.416137
vt 0.511183 0.065634
vt 0.511183 0.416137
vt 0.509268 0.065634
vt 0.509268 0.416137
vt 0.508794 0.065634
vt 0.508794 0.416137
vt 0.50836 0.065634
vt 0.50836 0.416137
vt 0.508024 0.065634
vt 0.508024 0.416137
vt 0.507833 0.065634
vt 0.507833 0.416137
vt 0.507812 0.065634
vt 0.507812 0.416137
vt 0.507884 0.065634
vt 0.507884 0.416137
vt 0.508091 0.065634
vt 0.508091 0.416137
vt 0.508414 0.065634
vt 0.508414 0.416137
vt 0.50882 0.065634
vt 0.50882 0.416137
vt 0.509271 0.065634
vt 0.509271 0.416137
vn 0.9505991634831076 0 0.3104210533859069
vn 0.8083652857628376 0 0.5886812081029646
vn 0.587187803660579 0 0.8094507293419813
vn 0.9968518313959844 0 0.07928698658967773
vn 0.3086658501740957 0 0.9511705383033595
vn 1 0 0
vn 0.014007998363389614 0 0.9999018831774702
vn 0 0 1
vn -0.2549120630856452 0 0.9669642393043395
vn -0.3725729611894492 0 0.9280029033308707
vn -0.3403228707096644 0 0.940308642772113
vn -0.28396609531153205 0 0.958834321827041
vn -0.2266099070564189 0 0.9739856005218359
vn -0.16845602892247077 0 0.9857091692379004
vn -0.10970996064726361 0 0.993963643467293
vn -0.03986100934051183 0 0.9992052341407924
vn -0.0781989820359364 0 0.9969377709809891
vn -0.3090168573056278 0 0.9510565608316645
vn -0.5877850844899974 0 0.8090171162905557
vn -0.8090171162905557 0 0.5877850844899974
vn -0.9510565608316645 0 0.3090168573056278
vn -0.9969173391662902 0 0.0784590266929423
vn -1 0 0
vn 0.9969173391662902 0 0.0784590266929423
vn 0.9510565608316645 0 0.3090168573056278
vn 0.8090171162905557 0 0.5877850844899974
vn 0.5877850844899974 0 0.8090171162905557
vn 0.3090168573056278 0 0.9510565608316645
vn 0.0784590266929423 0 0.9969173391662902
vn -0.021816999584026178 0 0.9997619809380383
vn -0.22709892866994094 0 0.9738716941142529
vn -0.5646550209052232 0 0.8253270305560833
vn -0.8254131599609589 0 0.5645291094029293
vn -0.9739063898859708 0 0.22695009085540194
vn -0.9997636366974576 0 0.021740992099574925
vn -0.9969173391662902 0 -0.0784590266929423
vn -0.9510565608316645 0 -0.3090168573056278
vn -0.8090171162905557 0 -0.5877850844899974
vn -0.5877850844899974 0 -0.8090171162905557
vn -0.3090168573056278 0 -0.9510565608316645
vn -0.0784590266929423 0 -0.9969173391662902
vn 0 0 -1
vn -0.8083652857628376 0 -0.5886812081029646
vn -0.9505991634831076 0 -0.3104210533859069
vn -0.587187803660579 0 -0.8094507293419813
vn -0.9968518313959844 0 -0.07928698658967773
vn -0.3086658501740957 0 -0.9511705383033595
vn -0.014007998363389614 0 -0.9999018831774702
vn 0.2549120630856452 0 -0.9669642393043395
vn 0.3725729611894492 0 -0.9280029033308707
vn 0.3403228707096644 0 -0.940308642772113
vn 0.28396609531153205 0 -0.958834321827041
vn 0.2266099070564189 0 -0.9739856005218359
vn 0.16845602892247077 0 -0.9857091692379004
vn 0.10970996064726361 0 -0.993963643467293
vn 0.03986100934051183 0 -0.9992052341407924
vn 0.0781989820359364 0 -0.9969377709809891
vn 0.3090168573056278 0 -0.9510565608316645
vn 0.5877850844899974 0 -0.8090171162905557
vn 0.8090171162905557 0 -0.5877850844899974
vn 0.9510565608316645 0 -0.3090168573056278
vn 0.9969173391662902 0 -0.0784590266929423
vn 0.021816999584026178 0 -0.9997619809380383
vn 0.22709892866994094 0 -0.9738716941142529
vn 0.5646550209052232 0 -0.8253270305560833
vn 0.8254131599609589 0 -0.5645291094029293
vn 0.9739063898859708 0 -0.22695009085540194
vn 0.9997636366974576 0 -0.021740992099574925
usemtl material_0_0
f 1/1/1 2/2/2 3/3/2
f 2/2/2 1/1/1 4/4/1
f 2/2/2 5/5/3 3/3/2
f 6/6/4 4/4/1 1/1/1
f 5/5/3 2/2/2 7/7/3
f 4/4/1 6/6/4 8/8/4
f 7/7/3 9/9/5 5/5/3
f 10/6/6 8/8/4 6/6/4
f 9/9/5 7/7/3 11/10/5
f 8/8/4 10/6/6 12/8/6
f 11/10/5 13/11/7 9/9/5
f 10/6/8 14/12/8 12/8/8
f 13/11/7 11/10/5 15/13/7
f 14/12/8 10/6/8 16/14/8
f 15/13/7 17/15/9 13/11/7
f 17/15/9 15/13/7 18/16/9
f 18/16/9 19/17/10 17/15/9
f 19/17/10 18/16/9 20/18/10
f 20/18/10 21/19/11 19/17/10
f 21/19/11 20/18/10 22/20/11
f 22/20/11 23/21/12 21/19/11
f 23/21/12 22/20/11 24/22/12
f 24/22/12 25/23/13 23/21/12
f 25/23/13 24/22/12 26/24/13
f 26/24/13 27/25/14 25/23/13
f 27/25/14 26/24/13 28/26/14
f 28/26/14 29/27/15 27/25/14
f 29/27/15 28/26/14 30/28/15
f 30/28/15 31/29/16 29/27/15
f 31/29/16 30/28/15 32/30/16
f 32/30/16 33/31/17 31/29/16
f 33/31/17 32/30/16 34/32/17
f 34/32/17 35/33/18 33/31/17
f 35/33/18 34/32/17 36/34/18
f 36/34/18 37/35/19 35/33/18
f 37/35/19 36/34/18 38/36/19
f 38/36/19 39/37/20 37/35/19
f 39/37/20 38/36/19 40/38/20
f 40/38/20 41/39/21 39/37/20
f 41/39/21 40/38/20 42/40/21
f 42/40/21 43/41/22 41/39/21
f 43/41/22 42/40/21 44/42/22
f 44/42/22 45/41/23 43/41/22
f 45/41/23 44/42/22 46/42/23
f 46/42/8 47/43/8 45/41/8
f 47/43/8 46/42/8 48/44/8
f 49/44/24 47/43/6 48/44/6
f 47/43/6 49/44/24 50/43/24
f 51/45/25 50/43/24 49/44/24
f 50/43/24 51/45/25 52/46/25
f 53/47/26 52/46/25 51/45/25
f 52/46/25 53/47/26 54/48/26
f 55/49/27 54/48/26 53/47/26
f 54/48/26 55/49/27 56/50/27
f 55/49/27 57/51/28 56/50/27
f 57/51/28 55/49/27 58/52/28
f 58/52/28 59/53/29 57/51/28
f 59/53/29 58/52/28 60/54/29
f 60/54/29 61/55/30 59/53/29
f 61/55/30 60/54/29 62/56/30
f 62/56/30 63/57/31 61/55/30
f 63/57/31 62/56/30 64/58/31
f 64/58/31 65/59/32 63/57/31
f 65/59/32 64/58/31 66/60/32
f 66/60/32 67/61/33 65/59/32
f 67/61/33 66/60/32 68/62/33
f 68/62/33 69/63/34 67/61/33
f 69/63/34 68/62/33 70/64/34
f 70/64/34 71/65/35 69/63/34
f 71/65/35 70/64/34 72/66/35
f 72/66/35 73/65/36 71/65/35
f 73/65/36 72/66/35 74/66/36
f 74/66/36 75/67/37 73/65/36
f 75/67/37 74/66/36 76/68/37
f 76/68/37 77/69/38 75/67/37
f 77/69/38 76/68/37 78/70/38
f 78/70/38 79/71/39 77/69/38
f 79/71/39 78/70/38 80/72/39
f 80/72/39 81/73/40 79/71/39
f 81/73/40 80/72/39 82/74/40
f 82/74/40 83/75/41 81/73/40
f 83/75/41 82/74/40 84/76/41
f 84/76/41 85/6/42 83/75/41
f 85/6/42 84/76/41 86/8/42
f 87/8/6 85/6/6 86/8/6
f 85/6/6 87/8/6 88/6/6
f 87/8/42 89/14/42 88/6/42
f 89/14/42 87/8/42 90/12/42
usemtl material_1_0
f 3//43 2//43 1//44
f 4//44 1//44 2//43
f 3//43 5//45 2//43
f 1//44 4//44 6//46
f 7//45 2//43 5//45
f 8//46 6//46 4//44
f 5//45 9//47 7//45
f 6//46 8//46 10//23
f 11//47 7//45 9//47
f 12//23 10//23 8//46
f 9//47 13//48 11//47
f 12//42 14//42 10//42
f 15//48 11//47 13//48
f 16//42 10//42 14//42
f 13//48 17//49 15//48
f 18//49 15//48 17//49
f 17//49 19//50 18//49
f 20//50 18//49 19//50
f 19//50 21//51 20//50
f 22//51 20//50 21//51
f 21//51 23//52 22//51
f 24//52 22//51 23//52
f 23//52 25//53 24//52
f 26//53 24//52 25//53
f 25//53 27//54 26//53
f 28//54 26//53 27//54
f 27//54 29//55 28//54
f 30//55 28//54 29//55
f 29//55 31//56 30//55
f 32//56 30//55 31//56
f 31//56 33//57 32//56
f 34//57 32//56 33//57
f 33//57 35//58 34//57
f 36//58 34//57 35//58
f 35//58 37//59 36//58
f 38//59 36//58 37//59
f 37//59 39//60 38//59
f 40//60 38//59 39//60
f 39//60 41//61 40//60
f 42//61 40//60 41//61
f 41//61 43//62 42//61
f 44//62 42//61 43//62
f 43//62 45//6 44//62
f 46//6 44//62 45//6
f 45//42 47//42 46//42
f 48//42 46//42 47//42
f 48//23 47//23 49//36
f 50//36 49//36 47//23
f 49//36 50//36 51//37
f 52//37 51//37 50//36
f 51//37 52//37 53//38
f 54//38 53//38 52//37
f 53//38 54//38 55//39
f 56//39 55//39 54//38
f 56//39 57//40 55//39
f 58//40 55//39 57//40
f 57//40 59//41 58//40
f 60//41 58//40 59//41
f 59//41 61//63 60//41
f 62//63 60//41 61//63
f 61//63 63//64 62//63
f 64//64 62//63 63//64
f 63//64 65//65 64//64
f 66//65 64//64 65//65
f 65//65 67//66 66//65
f 68//66 66//65 67//66
f 67//66 69//67 68//66
f 70//67 68//66 69//67
f 69//67 71//68 70//67
f 72//68 70//67 71//68
f 71//68 73//24 72//68
f 74//24 72//68 73//24
f 73//24 75//25 74//24
f 76//25 74//24 75//25
f 75//25 77//26 76//25
f 78//26 76//25 77//26
f 77//26 79//27 78//26
f 80//27 78//26 79//27
f 79//27 81//28 80//27
f 82//28 80//27 81//28
f 81//28 83//29 82//28
f 84//29 82//28 83//29
f 83//29 85//8 84//29
f 86//8 84//29 85//8
f 86//23 85//23 87//23
f 88//23 87//23 85//23
f 88//8 89//8 87//8
f 90//8 87//8 89//8
