# SSTK version 0.8.0
# 86
mtllib original-86.mtl
o DF_12_TC3/DF_12_TC/mesh31/mesh31-geometry#mesh31-geometry
v 0.231318 0.383228 0.233085
v -0.252810 0.376304 0.233085
v 0.231318 0.376304 0.233085
v -0.252810 0.383228 0.233085
v -0.252810 0.383228 0.241174
v 0.231318 0.383228 0.241174
v -0.252810 0.383420 0.242374
v 0.231318 0.383420 0.242374
v -0.252810 0.383973 0.243456
v 0.231318 0.383973 0.243456
v 0.231318 0.384833 0.244314
v -0.252810 0.384833 0.244314
v 0.231318 0.385916 0.244865
v -0.252810 0.385916 0.244865
v 0.231318 0.387116 0.245055
v -0.252810 0.387116 0.245055
v 0.231318 0.388152 0.244921
v -0.252810 0.388152 0.244921
v 0.231318 0.389120 0.244527
v -0.252810 0.389120 0.244527
v 0.231318 0.392767 0.243083
v -0.252810 0.392767 0.243083
v 0.231318 0.396493 0.241858
v -0.252810 0.396493 0.241858
v 0.231318 0.400285 0.240857
v -0.252810 0.400285 0.240857
v 0.231318 0.404130 0.240082
v -0.252810 0.404130 0.240082
v 0.231318 0.408014 0.239536
v -0.252810 0.408014 0.239536
v 0.231318 0.411924 0.239221
v -0.252810 0.411924 0.239221
v 0.231318 0.420520 0.239234
v -0.252810 0.420520 0.239234
v 0.231318 0.420795 0.239191
v -0.252810 0.420795 0.239191
v 0.231318 0.421042 0.239064
v -0.252810 0.421042 0.239064
v -0.252810 0.421239 0.238868
v 0.231318 0.421239 0.238868
v -0.252810 0.421365 0.238621
v 0.231318 0.421365 0.238621
v -0.252810 0.421408 0.238346
v 0.231318 0.421408 0.238346
v -0.252810 0.421408 0.237294
v 0.231318 0.421408 0.237294
v 0.231318 0.423384 0.237294
v -0.252810 0.423384 0.237294
v -0.252810 0.423384 0.237937
v 0.231318 0.423384 0.237937
v -0.252810 0.423479 0.238537
v 0.231318 0.423479 0.238537
v -0.252810 0.423756 0.239079
v 0.231318 0.423756 0.239079
v -0.252810 0.424186 0.239509
v 0.231318 0.424186 0.239509
v 0.231318 0.424728 0.239786
v -0.252810 0.424728 0.239786
v 0.231318 0.425328 0.239881
v -0.252810 0.425328 0.239881
v 0.231318 0.427881 0.239881
v -0.252810 0.427881 0.239881
v 0.231318 0.428513 0.239853
v -0.252810 0.428513 0.239853
v 0.231318 0.429092 0.239598
v -0.252810 0.429092 0.239598
v -0.252810 0.429539 0.239151
v 0.231318 0.429539 0.239151
v -0.252810 0.429794 0.238572
v 0.231318 0.429794 0.238572
v -0.252810 0.429821 0.237941
v 0.231318 0.429821 0.237941
v -0.252810 0.429821 0.226169
v 0.231318 0.429821 0.226169
v -0.252810 0.429726 0.225569
v 0.231318 0.429726 0.225569
v -0.252810 0.429450 0.225027
v 0.231318 0.429450 0.225027
v -0.252810 0.429020 0.224596
v 0.231318 0.429020 0.224596
v 0.231318 0.428478 0.224320
v -0.252810 0.428478 0.224320
v 0.231318 0.427877 0.224225
v -0.252810 0.427877 0.224225
v 0.231318 0.383228 0.224225
v -0.252810 0.383228 0.224225
v -0.252810 0.383228 0.225320
v 0.231318 0.383228 0.225320
v 0.231318 0.376304 0.225320
v -0.252810 0.376304 0.225320
vt 0.301318 0.050899
vt 0.306511 -0.437251
vt 0.306511 0.050899
vt 0.301318 -0.437251
vt 0.301174 -0.437251
vt 0.301174 0.050899
vt 0.300759 -0.437251
vt 0.300759 0.050899
vt 0.300114 0.050899
vt 0.300114 -0.437251
vt 0.299302 0.050899
vt 0.299301 -0.437251
vt 0.298401 0.050899
vt 0.298401 -0.437251
vt 0.297624 0.050899
vt 0.297624 -0.437251
vt 0.296898 0.050899
vt 0.296898 -0.437251
vt 0.294162 0.050899
vt 0.294162 -0.437251
vt 0.291367 0.050899
vt 0.291367 -0.437251
vt 0.288523 0.050899
vt 0.288523 -0.437251
vt 0.285639 0.050899
vt 0.285639 -0.437251
vt 0.282725 0.050899
vt 0.282725 -0.437251
vt 0.279793 0.050899
vt 0.279793 -0.437251
vt 0.273344 0.050899
vt 0.273344 -0.437251
vt 0.273138 0.050899
vt 0.273138 -0.437251
vt 0.272953 0.050899
vt 0.272953 -0.437251
vt 0.272805 -0.437251
vt 0.272805 0.050899
vt 0.272711 -0.437251
vt 0.272711 0.050899
vt 0.272678 -0.437251
vt 0.272678 0.050899
vt 0.271196 0.050899
vt 0.271196 -0.437251
vt 0.271124 -0.437251
vt 0.271124 0.050899
vt 0.270917 -0.437251
vt 0.270917 0.050899
vt 0.270595 -0.437251
vt 0.270595 0.050899
vt 0.270188 0.050899
vt 0.270188 -0.437251
vt 0.269737 0.050899
vt 0.269737 -0.437251
vt 0.267823 0.050899
vt 0.267823 -0.437251
vt 0.267349 0.050899
vt 0.267349 -0.437251
vt 0.266914 0.050899
vt 0.266914 -0.437251
vt 0.266579 -0.437251
vt 0.266579 0.050899
vt 0.266388 -0.437251
vt 0.266388 0.050899
vt 0.266367 -0.437251
vt 0.266367 0.050899
vt 0.266439 -0.437251
vt 0.266439 0.050899
vt 0.266646 -0.437251
vt 0.266646 0.050899
vt 0.266969 -0.437251
vt 0.266969 0.050899
vt 0.267375 0.050899
vt 0.267375 -0.437251
vt 0.267826 0.050899
vt 0.267826 -0.437251
vn 0 0 1
vn 0 -1 0
vn 0 -0.9968518313959844 0.0792869865896775
vn 0 -0.9505991634831077 0.3104210533859067
vn 0 -0.8083652857628377 0.5886812081029644
vn 0 -0.5871878036605792 0.8094507293419811
vn 0 -0.3086658501740959 0.9511705383033594
vn 0 -0.014007998363389836 0.9999018831774702
vn 0 0.25491206308564496 0.9669642393043396
vn 0 0.37257296118944894 0.9280029033308705
vn 0 0.3403228707096641 0.9403086427721129
vn 0 0.28396609531153183 0.9588343218270411
vn 0 0.22660990705641867 0.9739856005218359
vn 0 0.16845602892247055 0.9857091692379004
vn 0 0.10970996064726339 0.993963643467293
vn 0 0.03938999656763441 0.9992239129296305
vn 0 0.07772896315391493 0.9969745274012859
vn 0 0.30901685730562756 0.9510565608316646
vn 0 0.5877850844899972 0.8090171162905558
vn 0 0.8090171162905556 0.5877850844899977
vn 0 0.9510565608316643 0.309016857305628
vn 0 0.9969173391662902 0.07845902669294252
vn 0 1 0
vn 0 -0.9969173391662902 0.07845902669294208
vn 0 -0.9510565608316646 0.30901685730562756
vn 0 -0.8090171162905558 0.5877850844899972
vn 0 -0.5877850844899977 0.8090171162905556
vn 0 -0.309016857305628 0.9510565608316643
vn 0 -0.07845902669294252 0.9969173391662902
vn 0 0.021816999584025956 0.9997619809380383
vn 0 0.22709892866994077 0.9738716941142531
vn 0 0.564655020905223 0.8253270305560834
vn 0 0.8254131599609588 0.5645291094029296
vn 0 0.9739063898859708 0.22695009085540216
vn 0 0.9997636366974576 0.021740992099575147
vn 0 0.9969173391662902 -0.07845902669294208
vn 0 0.9510565608316646 -0.30901685730562756
vn 0 0.8090171162905558 -0.5877850844899972
vn 0 0.5877850844899977 -0.8090171162905556
vn 0 0.309016857305628 -0.9510565608316643
vn 0 0.07845902669294252 -0.9969173391662902
vn 0 0 -1
vn 0 0.9968518313959844 -0.0792869865896775
vn 0 0.9505991634831077 -0.3104210533859067
vn 0 0.8083652857628377 -0.5886812081029644
vn 0 0.5871878036605792 -0.8094507293419811
vn 0 0.3086658501740959 -0.9511705383033594
vn 0 0.014007998363389836 -0.9999018831774702
vn 0 -0.25491206308564496 -0.9669642393043396
vn 0 -0.37257296118944894 -0.9280029033308705
vn 0 -0.3403228707096641 -0.9403086427721129
vn 0 -0.28396609531153183 -0.9588343218270411
vn 0 -0.22660990705641867 -0.9739856005218359
vn 0 -0.16845602892247055 -0.9857091692379004
vn 0 -0.10970996064726339 -0.993963643467293
vn 0 -0.03938999656763441 -0.9992239129296305
vn 0 -0.07772896315391493 -0.9969745274012859
vn 0 -0.30901685730562756 -0.9510565608316646
vn 0 -0.5877850844899972 -0.8090171162905558
vn 0 -0.8090171162905556 -0.5877850844899977
vn 0 -0.9510565608316643 -0.309016857305628
vn 0 -0.9969173391662902 -0.07845902669294252
vn 0 -0.021816999584025956 -0.9997619809380383
vn 0 -0.22709892866994077 -0.9738716941142531
vn 0 -0.564655020905223 -0.8253270305560834
vn 0 -0.8254131599609588 -0.5645291094029296
vn 0 -0.9739063898859708 -0.22695009085540216
vn 0 -0.9997636366974576 -0.021740992099575147
usemtl material_0_0
f 1/1/1 2/2/1 3/3/1
f 2/2/1 1/1/1 4/4/1
f 1/1/2 5/4/3 4/4/2
f 5/4/3 1/1/2 6/1/3
f 6/1/3 7/5/4 5/4/3
f 7/5/4 6/1/3 8/6/4
f 8/6/4 9/7/5 7/5/4
f 9/7/5 8/6/4 10/8/5
f 11/9/6 9/7/5 10/8/5
f 9/7/5 11/9/6 12/10/6
f 13/11/7 12/10/6 11/9/6
f 12/10/6 13/11/7 14/12/7
f 15/13/8 14/12/7 13/11/7
f 14/12/7 15/13/8 16/14/8
f 17/15/9 16/14/8 15/13/8
f 16/14/8 17/15/9 18/16/9
f 19/17/10 18/16/9 17/15/9
f 18/16/9 19/17/10 20/18/10
f 21/19/11 20/18/10 19/17/10
f 20/18/10 21/19/11 22/20/11
f 23/21/12 22/20/11 21/19/11
f 22/20/11 23/21/12 24/22/12
f 25/23/13 24/22/12 23/21/12
f 24/22/12 25/23/13 26/24/13
f 27/25/14 26/24/13 25/23/13
f 26/24/13 27/25/14 28/26/14
f 29/27/15 28/26/14 27/25/14
f 28/26/14 29/27/15 30/28/15
f 31/29/16 30/28/15 29/27/15
f 30/28/15 31/29/16 32/30/16
f 33/31/17 32/30/16 31/29/16
f 32/30/16 33/31/17 34/32/17
f 35/33/18 34/32/17 33/31/17
f 34/32/17 35/33/18 36/34/18
f 37/35/19 36/34/18 35/33/18
f 36/34/18 37/35/19 38/36/19
f 37/35/19 39/37/20 38/36/19
f 39/37/20 37/35/19 40/38/20
f 40/38/20 41/39/21 39/37/20
f 41/39/21 40/38/20 42/40/21
f 42/40/21 43/41/22 41/39/21
f 43/41/22 42/40/21 44/42/22
f 44/42/22 45/41/23 43/41/22
f 45/41/23 44/42/22 46/42/23
f 47/43/1 45/41/1 46/42/1
f 45/41/1 47/43/1 48/44/1
f 47/43/2 49/44/24 48/44/2
f 49/44/24 47/43/2 50/43/24
f 50/43/24 51/45/25 49/44/24
f 51/45/25 50/43/24 52/46/25
f 52/46/25 53/47/26 51/45/25
f 53/47/26 52/46/25 54/48/26
f 54/48/26 55/49/27 53/47/26
f 55/49/27 54/48/26 56/50/27
f 57/51/28 55/49/27 56/50/27
f 55/49/27 57/51/28 58/52/28
f 59/53/29 58/52/28 57/51/28
f 58/52/28 59/53/29 60/54/29
f 61/55/30 60/54/29 59/53/29
f 60/54/29 61/55/30 62/56/30
f 63/57/31 62/56/30 61/55/30
f 62/56/30 63/57/31 64/58/31
f 65/59/32 64/58/31 63/57/31
f 64/58/31 65/59/32 66/60/32
f 65/59/32 67/61/33 66/60/32
f 67/61/33 65/59/32 68/62/33
f 68/62/33 69/63/34 67/61/33
f 69/63/34 68/62/33 70/64/34
f 70/64/34 71/65/35 69/63/34
f 71/65/35 70/64/34 72/66/35
f 72/66/35 73/65/36 71/65/35
f 73/65/36 72/66/35 74/66/36
f 74/66/36 75/67/37 73/65/36
f 75/67/37 74/66/36 76/68/37
f 76/68/37 77/69/38 75/67/37
f 77/69/38 76/68/37 78/70/38
f 78/70/38 79/71/39 77/69/38
f 79/71/39 78/70/38 80/72/39
f 81/73/40 79/71/39 80/72/39
f 79/71/39 81/73/40 82/74/40
f 83/75/41 82/74/40 81/73/40
f 82/74/40 83/75/41 84/76/41
f 85/1/42 84/76/41 83/75/41
f 84/76/41 85/1/42 86/4/42
f 85/1/2 87/4/2 86/4/2
f 87/4/2 85/1/2 88/1/2
f 89/3/42 87/4/42 88/1/42
f 87/4/42 89/3/42 90/2/42
usemtl material_1_0
f 3//42 2//42 1//42
f 4//42 1//42 2//42
f 4//23 5//43 1//23
f 6//43 1//23 5//43
f 5//43 7//44 6//43
f 8//44 6//43 7//44
f 7//44 9//45 8//44
f 10//45 8//44 9//45
f 10//45 9//45 11//46
f 12//46 11//46 9//45
f 11//46 12//46 13//47
f 14//47 13//47 12//46
f 13//47 14//47 15//48
f 16//48 15//48 14//47
f 15//48 16//48 17//49
f 18//49 17//49 16//48
f 17//49 18//49 19//50
f 20//50 19//50 18//49
f 19//50 20//50 21//51
f 22//51 21//51 20//50
f 21//51 22//51 23//52
f 24//52 23//52 22//51
f 23//52 24//52 25//53
f 26//53 25//53 24//52
f 25//53 26//53 27//54
f 28//54 27//54 26//53
f 27//54 28//54 29//55
f 30//55 29//55 28//54
f 29//55 30//55 31//56
f 32//56 31//56 30//55
f 31//56 32//56 33//57
f 34//57 33//57 32//56
f 33//57 34//57 35//58
f 36//58 35//58 34//57
f 35//58 36//58 37//59
f 38//59 37//59 36//58
f 38//59 39//60 37//59
f 40//60 37//59 39//60
f 39//60 41//61 40//60
f 42//61 40//60 41//61
f 41//61 43//62 42//61
f 44//62 42//61 43//62
f 43//62 45//2 44//62
f 46//2 44//62 45//2
f 46//42 45//42 47//42
f 48//42 47//42 45//42
f 48//23 49//36 47//23
f 50//36 47//23 49//36
f 49//36 51//37 50//36
f 52//37 50//36 51//37
f 51//37 53//38 52//37
f 54//38 52//37 53//38
f 53//38 55//39 54//38
f 56//39 54//38 55//39
f 56//39 55//39 57//40
f 58//40 57//40 55//39
f 57//40 58//40 59//41
f 60//41 59//41 58//40
f 59//41 60//41 61//63
f 62//63 61//63 60//41
f 61//63 62//63 63//64
f 64//64 63//64 62//63
f 63//64 64//64 65//65
f 66//65 65//65 64//64
f 66//65 67//66 65//65
f 68//66 65//65 67//66
f 67//66 69//67 68//66
f 70//67 68//66 69//67
f 69//67 71//68 70//67
f 72//68 70//67 71//68
f 71//68 73//24 72//68
f 74//24 72//68 73//24
f 73//24 75//25 74//24
f 76//25 74//24 75//25
f 75//25 77//26 76//25
f 78//26 76//25 77//26
f 77//26 79//27 78//26
f 80//27 78//26 79//27
f 80//27 79//27 81//28
f 82//28 81//28 79//27
f 81//28 82//28 83//29
f 84//29 83//29 82//28
f 83//29 84//29 85//1
f 86//1 85//1 84//29
f 86//23 87//23 85//23
f 88//23 85//23 87//23
f 88//1 87//1 89//1
f 90//1 89//1 87//1
