# SSTK version 0.8.0
# 152
mtllib original-152.mtl
o _7085_86_87_88_RT_c2/_7085_86_87_88_RT_c/mesh62/mesh62-geometry#mesh62-geometry
v 0.732694 0.208083 0.239225
v 0.727364 0.208083 0.239225
v 0.730029 0.208797 0.239226
v 0.734645 0.206132 0.239224
v 0.730029 0.208782 0.267437
v 0.732694 0.208068 0.266722
v 0.725412 0.206132 0.239224
v 0.727364 0.208068 0.266722
v 0.734076 0.206688 0.265340
v 0.735360 0.203466 0.239223
v 0.725412 0.206118 0.265187
v 0.725982 0.206688 0.265340
v 0.734645 0.206118 0.265187
v 0.724698 0.203466 0.239223
v 0.724698 0.203453 0.264471
v 0.735360 0.203453 0.264471
v 0.734645 0.200801 0.239221
v 0.725412 0.200801 0.239221
v 0.734645 0.200787 0.265184
v 0.732694 0.198850 0.239220
v 0.725412 0.200787 0.265184
v 0.734076 0.200218 0.265337
v 0.732694 0.198835 0.266717
v 0.727364 0.198850 0.239220
v 0.725982 0.200218 0.265337
v 0.730029 0.198121 0.267431
v 0.730029 0.198135 0.239220
v 0.727364 0.198835 0.266717
vn 0 0.000521999928881245 -0.999999863758028
vn -0.5000002259345916 0.866025155352011 0.00045206513109336384
vn 0 0.999999863758028 0.000521999928881245
vn 0.5000002259345916 0.866025155352011 0.00045206513109336384
vn 0.866025332335545 0.5000000556320907 0.0002610000290397285
vn 0.7071068293553604 0.7071066366801155 0.00036910966434670526
vn -0.866025332335545 0.5000000556320907 0.0002610000290397285
vn -0.7071068293553604 0.7071066366801155 0.00036910966434670526
vn 1 0 0
vn -1 0 0
vn 0.866025332335545 -0.5000000556320907 -0.0002610000290397285
vn -0.866025332335545 -0.5000000556320907 -0.0002610000290397285
vn 0.7071068293553604 -0.7071066366801155 -0.00036910966434670526
vn 0.5000002259345916 -0.866025155352011 -0.00045206513109336384
vn -0.7071068293553604 -0.7071066366801155 -0.00036910966434670526
vn 0 -0.999999863758028 -0.000521999928881245
vn -0.5000002259345916 -0.866025155352011 -0.00045206513109336384
vn 0 -0.000521999928881245 0.999999863758028
usemtl material_0_0
f 1//1 2//1 3//1
f 2//1 1//1 4//1
f 2//2 5//3 3//3
f 3//3 6//4 1//4
f 6//4 4//5 1//4
f 2//1 4//1 7//1
f 5//3 2//2 8//2
f 6//4 3//3 5//3
f 4//5 6//4 9//6
f 7//1 4//1 10//1
f 11//7 2//2 7//7
f 2//2 12//8 8//2
f 4//5 9//6 13//5
f 13//5 10//9 4//5
f 7//1 10//1 14//1
f 2//2 11//7 12//8
f 7//7 15//10 11//7
f 10//9 13//5 16//9
f 14//1 10//1 17//1
f 15//10 7//7 14//10
f 16//9 17//11 10//9
f 14//1 17//1 18//1
f 18//12 15//10 14//10
f 17//11 16//9 19//11
f 18//1 17//1 20//1
f 15//10 18//12 21//12
f 22//13 17//11 19//11
f 17//11 23//14 20//14
f 18//1 20//1 24//1
f 18//12 25//15 21//12
f 23//14 17//11 22//13
f 26//16 20//14 23//14
f 24//1 20//1 27//1
f 28//17 18//12 24//17
f 18//12 28//17 25//15
f 20//14 26//16 27//16
f 26//16 24//17 27//16
f 24//17 26//16 28//17
usemtl material_1_0
f 3//18 2//18 1//18
f 4//18 1//18 2//18
f 3//16 5//16 2//14
f 1//17 6//17 3//16
f 1//17 4//12 6//17
f 7//18 4//18 2//18
f 8//14 2//14 5//16
f 5//16 3//16 6//17
f 9//15 6//17 4//12
f 10//18 4//18 7//18
f 7//11 2//14 11//11
f 8//14 12//13 2//14
f 13//12 9//15 4//12
f 4//12 10//10 13//12
f 14//18 10//18 7//18
f 12//13 11//11 2//14
f 11//11 15//9 7//11
f 16//10 13//12 10//10
f 17//18 10//18 14//18
f 14//9 7//11 15//9
f 10//10 17//7 16//10
f 18//18 17//18 14//18
f 14//9 15//9 18//5
f 19//7 16//10 17//7
f 20//18 17//18 18//18
f 21//5 18//5 15//9
f 19//7 17//7 22//8
f 20//2 23//2 17//7
f 24//18 20//18 18//18
f 21//5 25//6 18//5
f 22//8 17//7 23//2
f 23//2 20//2 26//3
f 27//18 20//18 24//18
f 24//4 18//5 28//4
f 25//6 28//4 18//5
f 27//3 26//3 20//2
f 27//3 24//4 26//3
f 28//4 26//3 24//4
