# SSTK version 0.8.0
# 65
mtllib original-65.mtl
o DF_12_BR2/DF_12_BR/mesh27/mesh27-geometry#mesh27-geometry
v -0.391942 0.281583 0.245055
v -0.435249 0.280546 0.244921
v -0.390906 0.280546 0.244921
v -0.435249 0.281583 0.245055
v -0.435249 0.279578 0.244527
v -0.390906 0.292395 0.244921
v -0.393143 0.282783 0.244865
v -0.389938 0.279578 0.244527
v -0.391942 0.292395 0.245055
v -0.389938 0.292395 0.244527
v -0.435249 0.282783 0.244865
v -0.435249 0.275932 0.243083
v -0.394226 0.283866 0.244314
v -0.393143 0.292395 0.244865
v -0.386291 0.275932 0.243083
v -0.386291 0.292395 0.243083
v -0.435249 0.283866 0.244314
v -0.435249 0.272206 0.241858
v -0.395086 0.284726 0.243456
v -0.394226 0.292395 0.244314
v -0.382565 0.272206 0.241858
v -0.382565 0.292395 0.241858
v -0.435249 0.284726 0.243456
v -0.435249 0.268413 0.240857
v -0.435249 0.285279 0.242374
v -0.395086 0.292395 0.243456
v -0.378773 0.268413 0.240857
v -0.378773 0.292395 0.240857
v -0.395639 0.285279 0.242374
v -0.395639 0.292395 0.242374
v -0.435249 0.264569 0.240082
v -0.435249 0.285471 0.241174
v -0.374928 0.264569 0.240082
v -0.374928 0.292395 0.240082
v -0.395831 0.292395 0.241174
v -0.395831 0.285471 0.241174
v -0.435249 0.260685 0.239536
v -0.435249 0.285471 0.233085
v -0.371044 0.260685 0.239536
v -0.371044 0.292395 0.239536
v -0.395831 0.292395 0.233085
v -0.395831 0.285471 0.233085
v -0.435249 0.256775 0.239221
v -0.367135 0.256775 0.239221
v -0.367135 0.292395 0.239221
v -0.435249 0.292395 0.233085
v -0.435249 0.248178 0.239234
v -0.358538 0.248178 0.239234
v -0.358538 0.292395 0.239234
v -0.435249 0.247904 0.239191
v -0.358264 0.247904 0.239191
v -0.358264 0.292395 0.239191
v -0.435249 0.247657 0.239064
v -0.358016 0.247657 0.239064
v -0.358016 0.292395 0.239064
v -0.435249 0.247460 0.238868
v -0.357820 0.247460 0.238868
v -0.357820 0.292395 0.238868
v -0.357694 0.247334 0.238621
v -0.435249 0.247334 0.238621
v -0.357650 0.247291 0.238346
v -0.357694 0.292395 0.238621
v -0.435249 0.247291 0.238346
v -0.357650 0.247291 0.237294
v -0.357650 0.292395 0.238346
v -0.435249 0.247291 0.237294
v -0.435249 0.245314 0.237294
v -0.357650 0.292395 0.237294
v -0.355674 0.245314 0.237294
v -0.355674 0.292395 0.237294
v -0.355674 0.245314 0.237937
v -0.435249 0.245314 0.237937
v -0.355579 0.245219 0.238537
v -0.355674 0.292395 0.237937
v -0.435249 0.245219 0.238537
v -0.355303 0.244943 0.239079
v -0.355579 0.292395 0.238537
v -0.435249 0.244943 0.239079
v -0.435249 0.244513 0.239509
v -0.355303 0.292395 0.239079
v -0.354873 0.244513 0.239509
v -0.435249 0.243971 0.239786
v -0.354873 0.292395 0.239509
v -0.354331 0.243971 0.239786
v -0.354331 0.292395 0.239786
v -0.435249 0.243370 0.239881
v -0.353730 0.243370 0.239881
v -0.353730 0.292395 0.239881
v -0.435249 0.240818 0.239881
v -0.351177 0.240818 0.239881
v -0.351177 0.292395 0.239881
v -0.435249 0.240186 0.239853
v -0.350545 0.240186 0.239853
v -0.350545 0.292395 0.239853
v -0.435249 0.239607 0.239598
v -0.349966 0.239607 0.239598
v -0.349966 0.292395 0.239598
v -0.349519 0.239160 0.239151
v -0.435249 0.239160 0.239151
v -0.349265 0.238905 0.238572
v -0.349519 0.292395 0.239151
v -0.435249 0.238905 0.238572
v -0.349237 0.238878 0.237941
v -0.349265 0.292395 0.238572
v -0.435249 0.238878 0.237941
v -0.349237 0.238878 0.226169
v -0.349237 0.292395 0.237941
v -0.435249 0.238878 0.226169
v -0.349332 0.238973 0.225569
v -0.349237 0.292395 0.226169
v -0.435249 0.238973 0.225569
v -0.349608 0.239249 0.225027
v -0.349332 0.292395 0.225569
v -0.435249 0.239249 0.225027
v -0.435249 0.239679 0.224596
v -0.349608 0.292395 0.225027
v -0.350038 0.239679 0.224596
v -0.435249 0.240221 0.224320
v -0.350038 0.292395 0.224596
v -0.350580 0.240221 0.224320
v -0.435249 0.240822 0.224225
v -0.350580 0.292395 0.224320
v -0.351181 0.240822 0.224225
v -0.435249 0.285471 0.224225
v -0.351181 0.292395 0.224225
v -0.395831 0.285471 0.224225
v -0.395831 0.285471 0.225320
v -0.395831 0.292395 0.224225
v -0.435249 0.285471 0.225320
v -0.435249 0.292395 0.225320
v -0.395831 0.292395 0.225320
vt 0.361938 0.083384
vt 0.362715 0.050899
vt 0.362715 0.084162
vt 0.361938 0.050899
vt 0.363441 0.050899
vt 0.353828 0.084162
vt 0.361037 0.082484
vt 0.363441 0.084888
vt 0.353828 0.083384
vt 0.353828 0.084888
vt 0.361037 0.050899
vt 0.366177 0.050899
vt 0.360225 0.081672
vt 0.353828 0.082484
vt 0.366177 0.087624
vt 0.353828 0.087624
vt 0.360225 0.050899
vt 0.368972 0.050899
vt 0.35958 0.081027
vt 0.353828 0.081672
vt 0.368972 0.090419
vt 0.353828 0.090419
vt 0.35958 0.050899
vt 0.371816 0.050899
vt 0.359165 0.050899
vt 0.353828 0.081027
vt 0.371816 0.093263
vt 0.353828 0.093263
vt 0.359165 0.080612
vt 0.353828 0.080612
vt 0.3747 0.050899
vt 0.359021 0.050899
vt 0.3747 0.096147
vt 0.353828 0.096147
vt 0.353828 0.080468
vt 0.359021 0.080468
vt 0.377614 0.050899
vt 0.377614 0.09906
vt 0.353828 0.09906
vt 0.380546 0.050899
vt 0.380546 0.101993
vt 0.353828 0.101993
vt 0.353828 0.050899
vt 0.386995 0.050899
vt 0.386995 0.108442
vt 0.353828 0.108442
vt 0.387201 0.050899
vt 0.387201 0.108647
vt 0.353828 0.108647
vt 0.387386 0.050899
vt 0.387386 0.108833
vt 0.353828 0.108833
vt 0.387534 0.050899
vt 0.387534 0.10898
vt 0.353828 0.10898
vt 0.387628 0.109075
vt 0.387628 0.050899
vt 0.387661 0.109107
vt 0.353828 0.109075
vt 0.387661 0.050899
vt 0.353828 0.109107
vt 0.389143 0.050899
vt 0.389143 0.11059
vt 0.353828 0.11059
vt 0.389215 0.110661
vt 0.389215 0.050899
vt 0.389422 0.110868
vt 0.353828 0.110661
vt 0.389422 0.050899
vt 0.389744 0.050899
vt 0.353828 0.110868
vt 0.389744 0.111191
vt 0.390151 0.050899
vt 0.353828 0.111191
vt 0.390151 0.111598
vt 0.353828 0.111598
vt 0.390602 0.050899
vt 0.390602 0.112048
vt 0.353828 0.112048
vt 0.392516 0.050899
vt 0.392516 0.113963
vt 0.353828 0.113963
vt 0.39299 0.050899
vt 0.39299 0.114437
vt 0.353828 0.114437
vt 0.393425 0.050899
vt 0.393425 0.114871
vt 0.353828 0.114871
vt 0.39376 0.115207
vt 0.39376 0.050899
vt 0.393951 0.115398
vt 0.353828 0.115207
vt 0.393951 0.050899
vt 0.393972 0.115418
vt 0.353828 0.115398
vt 0.393972 0.050899
vt 0.353828 0.115418
vt 0.3939 0.115347
vt 0.3939 0.050899
vt 0.393693 0.11514
vt 0.353828 0.115347
vt 0.393693 0.050899
vt 0.39337 0.050899
vt 0.353828 0.11514
vt 0.39337 0.114817
vt 0.392964 0.050899
vt 0.353828 0.114817
vt 0.392964 0.114411
vt 0.392513 0.050899
vt 0.353828 0.114411
vt 0.392513 0.11396
vt 0.353828 0.11396
vn 0 0.014007998363389392 0.9999018831774702
vn 0 -0.25491206308564546 0.9669642393043396
vn 0 -0.37257296118944944 0.9280029033308705
vn 0.2549120630856452 0 0.9669642393043395
vn -0.014007998363389614 0 0.9999018831774702
vn 0 0.3086658501740955 0.9511705383033596
vn 0.3725729611894492 0 0.9280029033308707
vn -0.3086658501740957 0 0.9511705383033595
vn 0 -0.3403228707096646 0.9403086427721129
vn 0 0.5871878036605788 0.8094507293419814
vn 0.3403228707096644 0 0.940308642772113
vn -0.587187803660579 0 0.8094507293419813
vn 0 -0.28396609531153233 0.9588343218270411
vn 0 0.8083652857628374 0.5886812081029648
vn 0.28396609531153205 0 0.958834321827041
vn -0.8083652857628376 0 0.5886812081029646
vn 0 -0.22660990705641912 0.9739856005218359
vn 0 0.9505991634831077 0.3104210533859072
vn 0.2266099070564189 0 0.9739856005218359
vn -0.9505991634831076 0 0.3104210533859069
vn 0 -0.168456028922471 0.9857091692379004
vn 0 0.9968518313959844 0.07928698658967795
vn 0.16845602892247077 0 0.9857091692379004
vn -0.9968518313959844 0 0.07928698658967773
vn 0 -0.10970996064726384 0.993963643467293
vn 0 1 0
vn 0.10970996064726361 0 0.993963643467293
vn -1 0 0
vn 0 -0.03938999656763485 0.9992239129296305
vn 0 0 1
vn 0.03938999656763463 0 0.9992239129296305
vn 0 -0.07772896315391538 0.9969745274012859
vn 0.07772896315391516 0 0.9969745274012859
vn 0 -0.309016857305628 0.9510565608316643
vn 0.3090168573056278 0 0.9510565608316645
vn 0 -0.5877850844899977 0.8090171162905556
vn 0.5877850844899974 0 0.8090171162905557
vn 0 -0.8090171162905558 0.5877850844899972
vn 0.8090171162905557 0 0.5877850844899974
vn 0 -0.9510565608316646 0.30901685730562756
vn 0.9510565608316645 0 0.3090168573056278
vn 0 -0.9969173391662902 0.07845902669294208
vn 0.9969173391662902 0 0.0784590266929423
vn 0 -1 0
vn 1 0 0
vn 0 0.9969173391662902 0.07845902669294252
vn -0.9969173391662902 0 0.0784590266929423
vn 0 0.9510565608316643 0.309016857305628
vn -0.9510565608316645 0 0.3090168573056278
vn 0 0.8090171162905556 0.5877850844899977
vn -0.8090171162905557 0 0.5877850844899974
vn 0 0.5877850844899972 0.8090171162905558
vn -0.5877850844899974 0 0.8090171162905557
vn 0 0.30901685730562756 0.9510565608316646
vn -0.3090168573056278 0 0.9510565608316645
vn 0 0.07845902669294208 0.9969173391662902
vn -0.0784590266929423 0 0.9969173391662902
vn 0 -0.0218169995840264 0.9997619809380383
vn 0.021816999584026178 0 0.9997619809380383
vn 0 -0.22709892866994116 0.9738716941142529
vn 0.22709892866994094 0 0.9738716941142529
vn 0 -0.5646550209052235 0.8253270305560831
vn 0.5646550209052232 0 0.8253270305560833
vn 0 -0.825413159960959 0.5645291094029291
vn 0.8254131599609589 0 0.5645291094029293
vn 0 -0.973906389885971 0.22695009085540177
vn 0.9739063898859708 0 0.22695009085540194
vn 0 -0.9997636366974576 0.021740992099574703
vn 0.9997636366974576 0 0.021740992099574925
vn 0 -0.9969173391662902 -0.07845902669294252
vn 0.9969173391662902 0 -0.0784590266929423
vn 0 -0.9510565608316643 -0.309016857305628
vn 0.9510565608316645 0 -0.3090168573056278
vn 0 -0.8090171162905556 -0.5877850844899977
vn 0.8090171162905557 0 -0.5877850844899974
vn 0 -0.5877850844899972 -0.8090171162905558
vn 0.5877850844899974 0 -0.8090171162905557
vn 0 -0.30901685730562756 -0.9510565608316646
vn 0.3090168573056278 0 -0.9510565608316645
vn 0 -0.07845902669294208 -0.9969173391662902
vn 0.0784590266929423 0 -0.9969173391662902
vn 0 0 -1
vn 0 0.25491206308564546 -0.9669642393043396
vn 0 -0.014007998363389392 -0.9999018831774702
vn 0 0.37257296118944944 -0.9280029033308705
vn -0.2549120630856452 0 -0.9669642393043395
vn 0.014007998363389614 0 -0.9999018831774702
vn 0 -0.3086658501740955 -0.9511705383033596
vn -0.3725729611894492 0 -0.9280029033308707
vn 0.3086658501740957 0 -0.9511705383033595
vn 0 0.3403228707096646 -0.9403086427721129
vn 0 -0.5871878036605788 -0.8094507293419814
vn -0.3403228707096644 0 -0.940308642772113
vn 0.587187803660579 0 -0.8094507293419813
vn 0 0.28396609531153233 -0.9588343218270411
vn 0 -0.8083652857628374 -0.5886812081029648
vn -0.28396609531153205 0 -0.958834321827041
vn 0.8083652857628376 0 -0.5886812081029646
vn 0 0.22660990705641912 -0.9739856005218359
vn 0 -0.9505991634831077 -0.3104210533859072
vn -0.2266099070564189 0 -0.9739856005218359
vn 0.9505991634831076 0 -0.3104210533859069
vn 0 0.168456028922471 -0.9857091692379004
vn 0 -0.9968518313959844 -0.07928698658967795
vn -0.16845602892247077 0 -0.9857091692379004
vn 0.9968518313959844 0 -0.07928698658967773
vn 0 0.10970996064726384 -0.993963643467293
vn -0.10970996064726361 0 -0.993963643467293
vn 0 0.03938999656763485 -0.9992239129296305
vn -0.03938999656763463 0 -0.9992239129296305
vn 0 0.07772896315391538 -0.9969745274012859
vn -0.07772896315391516 0 -0.9969745274012859
vn 0 0.309016857305628 -0.9510565608316643
vn -0.3090168573056278 0 -0.9510565608316645
vn 0 0.5877850844899977 -0.8090171162905556
vn -0.5877850844899974 0 -0.8090171162905557
vn 0 0.8090171162905558 -0.5877850844899972
vn -0.8090171162905557 0 -0.5877850844899974
vn 0 0.9510565608316646 -0.30901685730562756
vn -0.9510565608316645 0 -0.3090168573056278
vn 0 0.9969173391662902 -0.07845902669294208
vn -0.9969173391662902 0 -0.0784590266929423
vn 0 0.0218169995840264 -0.9997619809380383
vn -0.021816999584026178 0 -0.9997619809380383
vn 0 0.22709892866994116 -0.9738716941142529
vn -0.22709892866994094 0 -0.9738716941142529
vn 0 0.5646550209052235 -0.8253270305560831
vn -0.5646550209052232 0 -0.8253270305560833
vn 0 0.825413159960959 -0.5645291094029291
vn -0.8254131599609589 0 -0.5645291094029293
vn 0 0.973906389885971 -0.22695009085540177
vn -0.9739063898859708 0 -0.22695009085540194
vn 0 0.9997636366974576 -0.021740992099574703
vn -0.9997636366974576 0 -0.021740992099574925
usemtl material_0_0
f 1/1/1 2/2/2 3/3/2
f 2/2/2 1/1/1 4/4/1
f 5/5/3 3/3/2 2/2/2
f 6/6/4 1/1/5 3/3/4
f 7/7/6 4/4/1 1/1/1
f 3/3/2 5/5/3 8/8/3
f 1/1/5 6/6/4 9/9/5
f 3/3/4 10/10/7 6/6/4
f 4/4/1 7/7/6 11/11/6
f 9/9/5 7/7/8 1/1/5
f 12/12/9 8/8/3 5/5/3
f 10/10/7 3/3/4 8/8/7
f 13/13/10 11/11/6 7/7/6
f 7/7/8 9/9/5 14/14/8
f 8/8/3 12/12/9 15/15/9
f 8/8/7 16/16/11 10/10/7
f 11/11/6 13/13/10 17/17/10
f 14/14/8 13/13/12 7/7/8
f 18/18/13 15/15/9 12/12/9
f 16/16/11 8/8/7 15/15/11
f 19/19/14 17/17/10 13/13/10
f 13/13/12 14/14/8 20/20/12
f 15/15/9 18/18/13 21/21/13
f 15/15/11 22/22/15 16/16/11
f 17/17/10 19/19/14 23/23/14
f 20/20/12 19/19/16 13/13/12
f 24/24/17 21/21/13 18/18/13
f 22/22/15 15/15/11 21/21/15
f 19/19/14 25/25/18 23/23/14
f 19/19/16 20/20/12 26/26/16
f 21/21/13 24/24/17 27/27/17
f 21/21/15 28/28/19 22/22/15
f 25/25/18 19/19/14 29/29/18
f 30/30/20 19/19/16 26/26/16
f 31/31/21 27/27/17 24/24/17
f 28/28/19 21/21/15 27/27/19
f 19/19/16 30/30/20 29/29/20
f 29/29/18 32/32/22 25/25/18
f 27/27/17 31/31/21 33/33/21
f 27/27/19 34/34/23 28/28/19
f 35/35/24 29/29/20 30/30/20
f 32/32/22 29/29/18 36/36/22
f 37/37/25 33/33/21 31/31/21
f 34/34/23 27/27/19 33/33/23
f 29/29/20 35/35/24 36/36/24
f 36/36/22 38/32/26 32/32/22
f 33/33/21 37/37/25 39/38/25
f 33/33/23 40/39/27 34/34/23
f 41/35/28 36/36/24 35/35/24
f 38/32/26 36/36/22 42/36/26
f 43/40/29 39/38/25 37/37/25
f 40/39/27 33/33/23 39/38/27
f 36/36/24 41/35/28 42/36/28
f 41/35/30 38/32/30 42/36/30
f 39/38/25 43/40/29 44/41/29
f 39/38/27 45/42/31 40/39/27
f 38/32/30 41/35/30 46/43/30
f 47/44/32 44/41/29 43/40/29
f 45/42/31 39/38/27 44/41/31
f 44/41/29 47/44/32 48/45/32
f 44/41/31 49/46/33 45/42/31
f 50/47/34 48/45/32 47/44/32
f 49/46/33 44/41/31 48/45/33
f 48/45/32 50/47/34 51/48/34
f 48/45/33 52/49/35 49/46/33
f 53/50/36 51/48/34 50/47/34
f 52/49/35 48/45/33 51/48/35
f 51/48/34 53/50/36 54/51/36
f 51/48/35 55/52/37 52/49/35
f 56/53/38 54/51/36 53/50/36
f 55/52/37 51/48/35 54/51/37
f 54/51/36 56/53/38 57/54/38
f 54/51/37 58/55/39 55/52/37
f 56/53/38 59/56/40 57/54/38
f 58/55/39 54/51/37 57/54/39
f 59/56/40 56/53/38 60/57/40
f 59/56/41 58/55/39 57/54/39
f 60/57/40 61/58/42 59/56/40
f 58/55/39 59/56/41 62/59/41
f 61/58/42 60/57/40 63/60/42
f 61/58/43 62/59/41 59/56/41
f 63/60/42 64/58/44 61/58/42
f 62/59/41 61/58/43 65/61/43
f 64/58/44 63/60/42 66/60/44
f 64/58/45 65/61/43 61/58/43
f 67/62/30 64/58/30 66/60/30
f 65/61/43 64/58/45 68/61/45
f 64/58/30 67/62/30 69/63/30
f 64/58/30 70/64/30 68/61/30
f 67/62/26 71/63/46 69/63/26
f 70/64/30 64/58/30 69/63/30
f 71/63/46 67/62/26 72/62/46
f 71/63/47 70/64/28 69/63/28
f 72/62/46 73/65/48 71/63/46
f 70/64/28 71/63/47 74/64/47
f 73/65/48 72/62/46 75/66/48
f 73/65/49 74/64/47 71/63/47
f 75/66/48 76/67/50 73/65/48
f 74/64/47 73/65/49 77/68/49
f 76/67/50 75/66/48 78/69/50
f 76/67/51 77/68/49 73/65/49
f 79/70/52 76/67/50 78/69/50
f 77/68/49 76/67/51 80/71/51
f 76/67/50 79/70/52 81/72/52
f 81/72/53 80/71/51 76/67/51
f 82/73/54 81/72/52 79/70/52
f 80/71/51 81/72/53 83/74/53
f 81/72/52 82/73/54 84/75/54
f 81/72/53 85/76/55 83/74/53
f 86/77/56 84/75/54 82/73/54
f 85/76/55 81/72/53 84/75/55
f 84/75/54 86/77/56 87/78/56
f 84/75/55 88/79/57 85/76/55
f 89/80/58 87/78/56 86/77/56
f 88/79/57 84/75/55 87/78/57
f 87/78/56 89/80/58 90/81/58
f 87/78/57 91/82/59 88/79/57
f 92/83/60 90/81/58 89/80/58
f 91/82/59 87/78/57 90/81/59
f 90/81/58 92/83/60 93/84/60
f 90/81/59 94/85/61 91/82/59
f 95/86/62 93/84/60 92/83/60
f 94/85/61 90/81/59 93/84/61
f 93/84/60 95/86/62 96/87/62
f 93/84/61 97/88/63 94/85/61
f 95/86/62 98/89/64 96/87/62
f 97/88/63 93/84/61 96/87/63
f 98/89/64 95/86/62 99/90/64
f 98/89/65 97/88/63 96/87/63
f 99/90/64 100/91/66 98/89/64
f 97/88/63 98/89/65 101/92/65
f 100/91/66 99/90/64 102/93/66
f 100/91/67 101/92/65 98/89/65
f 102/93/66 103/94/68 100/91/66
f 101/92/65 100/91/67 104/95/67
f 103/94/68 102/93/66 105/96/68
f 103/94/69 104/95/67 100/91/67
f 105/96/68 106/94/70 103/94/68
f 104/95/67 103/94/69 107/97/69
f 106/94/70 105/96/68 108/96/70
f 106/94/71 107/97/69 103/94/69
f 108/96/70 109/98/72 106/94/70
f 107/97/69 106/94/71 110/97/71
f 109/98/72 108/96/70 111/99/72
f 109/98/73 110/97/71 106/94/71
f 111/99/72 112/100/74 109/98/72
f 110/97/71 109/98/73 113/101/73
f 112/100/74 111/99/72 114/102/74
f 112/100/75 113/101/73 109/98/73
f 115/103/76 112/100/74 114/102/74
f 113/101/73 112/100/75 116/104/75
f 112/100/74 115/103/76 117/105/76
f 117/105/77 116/104/75 112/100/75
f 118/106/78 117/105/76 115/103/76
f 116/104/75 117/105/77 119/107/77
f 117/105/76 118/106/78 120/108/78
f 120/108/79 119/107/77 117/105/77
f 121/109/80 120/108/78 118/106/78
f 119/107/77 120/108/79 122/110/79
f 120/108/78 121/109/80 123/111/80
f 123/111/81 122/110/79 120/108/79
f 124/32/82 123/111/80 121/109/80
f 122/110/79 123/111/81 125/112/81
f 123/111/80 124/32/82 126/36/82
f 126/36/82 125/112/81 123/111/81
f 124/32/26 127/36/26 126/36/26
f 125/112/81 126/36/82 128/35/82
f 127/36/26 124/32/26 129/32/26
f 127/36/28 128/35/28 126/36/28
f 130/43/82 127/36/82 129/32/82
f 128/35/28 127/36/28 131/35/28
f 127/36/82 130/43/82 131/35/82
usemtl material_1_0
f 3//83 2//83 1//84
f 4//84 1//84 2//83
f 2//83 3//83 5//85
f 3//86 1//87 6//86
f 1//84 4//84 7//88
f 8//85 5//85 3//83
f 9//87 6//86 1//87
f 6//86 10//89 3//86
f 11//88 7//88 4//84
f 1//87 7//90 9//87
f 5//85 8//85 12//91
f 8//89 3//86 10//89
f 7//88 11//88 13//92
f 14//90 9//87 7//90
f 15//91 12//91 8//85
f 10//89 16//93 8//89
f 17//92 13//92 11//88
f 7//90 13//94 14//90
f 12//91 15//91 18//95
f 15//93 8//89 16//93
f 13//92 17//92 19//96
f 20//94 14//90 13//94
f 21//95 18//95 15//91
f 16//93 22//97 15//93
f 23//96 19//96 17//92
f 13//94 19//98 20//94
f 18//95 21//95 24//99
f 21//97 15//93 22//97
f 23//96 25//100 19//96
f 26//98 20//94 19//98
f 27//99 24//99 21//95
f 22//97 28//101 21//97
f 29//100 19//96 25//100
f 26//98 19//98 30//102
f 24//99 27//99 31//103
f 27//101 21//97 28//101
f 29//102 30//102 19//98
f 25//100 32//104 29//100
f 33//103 31//103 27//99
f 28//101 34//105 27//101
f 30//102 29//102 35//106
f 36//104 29//100 32//104
f 31//103 33//103 37//107
f 33//105 27//101 34//105
f 36//106 35//106 29//102
f 32//104 38//44 36//104
f 39//107 37//107 33//103
f 34//105 40//108 33//105
f 35//106 36//106 41//45
f 42//44 36//104 38//44
f 37//107 39//107 43//109
f 39//108 33//105 40//108
f 42//45 41//45 36//106
f 42//82 38//82 41//82
f 44//109 43//109 39//107
f 40//108 45//110 39//108
f 46//82 41//82 38//82
f 43//109 44//109 47//111
f 44//110 39//108 45//110
f 48//111 47//111 44//109
f 45//110 49//112 44//110
f 47//111 48//111 50//113
f 48//112 44//110 49//112
f 51//113 50//113 48//111
f 49//112 52//114 48//112
f 50//113 51//113 53//115
f 51//114 48//112 52//114
f 54//115 53//115 51//113
f 52//114 55//116 51//114
f 53//115 54//115 56//117
f 54//116 51//114 55//116
f 57//117 56//117 54//115
f 55//116 58//118 54//116
f 57//117 59//119 56//117
f 57//118 54//116 58//118
f 60//119 56//117 59//119
f 57//118 58//118 59//120
f 59//119 61//121 60//119
f 62//120 59//120 58//118
f 63//121 60//119 61//121
f 59//120 62//120 61//122
f 61//121 64//26 63//121
f 65//122 61//122 62//120
f 66//26 63//121 64//26
f 61//122 65//122 64//28
f 66//82 64//82 67//82
f 68//28 64//28 65//122
f 69//82 67//82 64//82
f 68//82 70//82 64//82
f 69//44 71//70 67//44
f 69//82 64//82 70//82
f 72//70 67//44 71//70
f 69//45 70//45 71//71
f 71//70 73//72 72//70
f 74//71 71//71 70//45
f 75//72 72//70 73//72
f 71//71 74//71 73//73
f 73//72 76//74 75//72
f 77//73 73//73 74//71
f 78//74 75//72 76//74
f 73//73 77//73 76//75
f 78//74 76//74 79//76
f 80//75 76//75 77//73
f 81//76 79//76 76//74
f 76//75 80//75 81//77
f 79//76 81//76 82//78
f 83//77 81//77 80//75
f 84//78 82//78 81//76
f 83//77 85//79 81//77
f 82//78 84//78 86//80
f 84//79 81//77 85//79
f 87//80 86//80 84//78
f 85//79 88//81 84//79
f 86//80 87//80 89//123
f 87//81 84//79 88//81
f 90//123 89//123 87//80
f 88//81 91//124 87//81
f 89//123 90//123 92//125
f 90//124 87//81 91//124
f 93//125 92//125 90//123
f 91//124 94//126 90//124
f 92//125 93//125 95//127
f 93//126 90//124 94//126
f 96//127 95//127 93//125
f 94//126 97//128 93//126
f 96//127 98//129 95//127
f 96//128 93//126 97//128
f 99//129 95//127 98//129
f 96//128 97//128 98//130
f 98//129 100//131 99//129
f 101//130 98//130 97//128
f 102//131 99//129 100//131
f 98//130 101//130 100//132
f 100//131 103//133 102//131
f 104//132 100//132 101//130
f 105//133 102//131 103//133
f 100//132 104//132 103//134
f 103//133 106//46 105//133
f 107//134 103//134 104//132
f 108//46 105//133 106//46
f 103//134 107//134 106//47
f 106//46 109//48 108//46
f 110//47 106//47 107//134
f 111//48 108//46 109//48
f 106//47 110//47 109//49
f 109//48 112//50 111//48
f 113//49 109//49 110//47
f 114//50 111//48 112//50
f 109//49 113//49 112//51
f 114//50 112//50 115//52
f 116//51 112//51 113//49
f 117//52 115//52 112//50
f 112//51 116//51 117//53
f 115//52 117//52 118//54
f 119//53 117//53 116//51
f 120//54 118//54 117//52
f 117//53 119//53 120//55
f 118//54 120//54 121//56
f 122//55 120//55 119//53
f 123//56 121//56 120//54
f 120//55 122//55 123//57
f 121//56 123//56 124//30
f 125//57 123//57 122//55
f 126//30 124//30 123//56
f 123//57 125//57 126//30
f 126//44 127//44 124//44
f 128//30 126//30 125//57
f 129//44 124//44 127//44
f 126//45 128//45 127//45
f 129//30 127//30 130//30
f 131//45 127//45 128//45
f 131//30 130//30 127//30
