# SSTK version 0.8.0
# 75
mtllib original-75.mtl
o _7085_86_87_88_TC_b2/_7085_86_87_88_TC_b/mesh35/mesh35-geometry#mesh35-geometry
v -0.748856 0.409441 0.239230
v -0.754187 0.409441 0.239230
v -0.751521 0.410156 0.239231
v -0.746905 0.407490 0.239227
v -0.751521 0.410114 0.267442
v -0.748856 0.409401 0.266726
v -0.756138 0.407490 0.239227
v -0.754187 0.409401 0.266726
v -0.747474 0.408022 0.265343
v -0.746190 0.404825 0.239223
v -0.756138 0.407452 0.265189
v -0.755568 0.408022 0.265343
v -0.746905 0.407452 0.265189
v -0.756852 0.404825 0.239223
v -0.756852 0.404788 0.264471
v -0.746190 0.404788 0.264471
v -0.746905 0.402160 0.239219
v -0.756138 0.402160 0.239219
v -0.746905 0.402122 0.265182
v -0.748856 0.400208 0.239216
v -0.756138 0.402122 0.265182
v -0.747474 0.401552 0.265333
v -0.748856 0.400168 0.266713
v -0.754187 0.400208 0.239216
v -0.755568 0.401552 0.265333
v -0.751521 0.399453 0.267426
v -0.751521 0.399494 0.239215
v -0.754187 0.400168 0.266713
vt 0.001999 -0.003463
vt -0.001999 -0.003463
vt 0 -0.003999
vt 0.003463 -0.001999
vt -0.003463 -0.001999
vt 0.003999 0
vt -0.003999 0
vt 0.003463 0.001999
vt -0.003463 0.001999
vt 0.001999 0.003463
vt -0.001999 0.003463
vt 0 0.003999
vn 0 0.001464999892890173 -0.9999989268870813
vn 0 -0.001464999892890173 0.9999989268870813
vn 0 -0.9999989268870813 -0.001464999892890173
vn 0.5000002022612182 -0.8660243576659148 -0.0012687269527081296
vn -0.5000002022612182 -0.8660243576659148 -0.0012687269527081296
vn -0.8660253186677123 -0.499999610869848 -0.0007325001624248428
vn -0.7071068070358942 -0.7071059965318056 -0.0010359113208309153
vn 0.8660253186677123 -0.499999610869848 -0.0007325001624248428
vn 0.7071068070358942 -0.7071059965318056 -0.0010359113208309153
vn -1 0 0
vn 1 0 0
vn -0.8660253186677123 0.499999610869848 0.0007325001624248428
vn 0.8660253186677123 0.499999610869848 0.0007325001624248428
vn -0.7071068070358942 0.7071059965318056 0.0010359113208309153
vn -0.5000002022612182 0.8660243576659148 0.0012687269527081296
vn 0.7071068070358942 0.7071059965318056 0.0010359113208309153
vn 0 0.9999989268870813 0.001464999892890173
vn 0.5000002022612182 0.8660243576659148 0.0012687269527081296
usemtl material_0_0
f 1/1/1 2/2/1 3/3/1
f 2/2/1 1/1/1 4/4/1
f 2/2/1 4/4/1 7/5/1
f 7/5/1 4/4/1 10/6/1
f 7/5/1 10/6/1 14/7/1
f 14/7/1 10/6/1 17/8/1
f 14/7/1 17/8/1 18/9/1
f 18/9/1 17/8/1 20/10/1
f 18/9/1 20/10/1 24/11/1
f 24/11/1 20/10/1 27/12/1
usemtl material_1_0
f 3//2 2//2 1//2
f 4//2 1//2 2//2
f 3//3 5//3 2//4
f 1//5 6//5 3//3
f 1//5 4//6 6//5
f 7//2 4//2 2//2
f 8//4 2//4 5//3
f 5//3 3//3 6//5
f 9//7 6//5 4//6
f 10//2 4//2 7//2
f 7//8 2//4 11//8
f 8//4 12//9 2//4
f 13//6 9//7 4//6
f 4//6 10//10 13//6
f 14//2 10//2 7//2
f 12//9 11//8 2//4
f 11//8 15//11 7//8
f 16//10 13//6 10//10
f 17//2 10//2 14//2
f 14//11 7//8 15//11
f 10//10 17//12 16//10
f 18//2 17//2 14//2
f 14//11 15//11 18//13
f 19//12 16//10 17//12
f 20//2 17//2 18//2
f 21//13 18//13 15//11
f 19//12 17//12 22//14
f 20//15 23//15 17//12
f 24//2 20//2 18//2
f 21//13 25//16 18//13
f 22//14 17//12 23//15
f 23//15 20//15 26//17
f 27//2 20//2 24//2
f 24//18 18//13 28//18
f 25//16 28//18 18//13
f 27//17 26//17 20//15
f 27//17 24//18 26//17
f 28//18 26//17 24//18
usemtl material_2_0
f 2//15 5//17 3//17
f 3//17 6//18 1//18
f 6//18 4//13 1//18
f 5//17 2//15 8//15
f 6//18 3//17 5//17
f 4//13 6//18 9//16
f 11//12 2//15 7//12
f 2//15 12//14 8//15
f 4//13 9//16 13//13
f 13//13 10//11 4//13
f 2//15 11//12 12//14
f 7//12 15//10 11//12
f 10//11 13//13 16//11
f 15//10 7//12 14//10
f 16//11 17//8 10//11
f 18//6 15//10 14//10
f 17//8 16//11 19//8
f 15//10 18//6 21//6
f 22//9 17//8 19//8
f 17//8 23//4 20//4
f 18//6 25//7 21//6
f 23//4 17//8 22//9
f 26//3 20//4 23//4
f 28//5 18//6 24//5
f 18//6 28//5 25//7
f 20//4 26//3 27//3
f 26//3 24//5 27//3
f 24//5 26//3 28//5
