# SSTK version 0.8.0
# 140
mtllib original-140.mtl
o RT_11_TR2/RT_11_TR/mesh52/mesh52-geometry#mesh52-geometry
v 0.761023 0.172231 0.244527
v 0.760055 0.140964 0.244921
v 0.761023 0.140964 0.244527
v 0.760055 0.171263 0.244921
v 0.764670 0.175878 0.243083
v 0.725538 0.172231 0.244527
v 0.759019 0.140964 0.245055
v 0.764670 0.140964 0.243083
v 0.725538 0.175878 0.243083
v 0.725538 0.171263 0.244921
v 0.759019 0.170226 0.245055
v 0.768396 0.179604 0.241858
v 0.757818 0.140964 0.244865
v 0.768396 0.140964 0.241858
v 0.725538 0.179604 0.241858
v 0.725538 0.170226 0.245055
v 0.757818 0.169026 0.244865
v 0.772188 0.183396 0.240857
v 0.756735 0.140964 0.244314
v 0.772188 0.140964 0.240857
v 0.725538 0.183396 0.240857
v 0.725538 0.169026 0.244865
v 0.756735 0.167943 0.244314
v 0.776033 0.187241 0.240082
v 0.725538 0.167943 0.244314
v 0.755875 0.140964 0.243456
v 0.776033 0.140964 0.240082
v 0.725538 0.187241 0.240082
v 0.725538 0.167083 0.243456
v 0.755875 0.167083 0.243456
v 0.779917 0.191125 0.239536
v 0.755322 0.166530 0.242374
v 0.779917 0.140964 0.239536
v 0.725538 0.191125 0.239536
v 0.755322 0.140964 0.242374
v 0.783826 0.195034 0.239221
v 0.725538 0.166530 0.242374
v 0.755130 0.166338 0.241174
v 0.783826 0.140964 0.239221
v 0.725538 0.195034 0.239221
v 0.755130 0.140964 0.241174
v 0.807954 0.219162 0.239234
v 0.725538 0.166338 0.241174
v 0.755130 0.166338 0.233085
v 0.807954 0.140964 0.239234
v 0.725538 0.219162 0.239234
v 0.755130 0.140964 0.233085
v 0.808228 0.219436 0.239191
v 0.725538 0.219436 0.239191
v 0.725538 0.166338 0.233085
v 0.725538 0.140964 0.233085
v 0.808228 0.140964 0.239191
v 0.808476 0.219683 0.239064
v 0.725538 0.219683 0.239064
v 0.808476 0.140964 0.239064
v 0.808672 0.140964 0.238868
v 0.808672 0.219880 0.238868
v 0.725538 0.219880 0.238868
v 0.808798 0.140964 0.238621
v 0.725538 0.220006 0.238621
v 0.808798 0.220006 0.238621
v 0.808842 0.140964 0.238346
v 0.725538 0.220049 0.238346
v 0.808842 0.220049 0.238346
v 0.808842 0.140964 0.237294
v 0.725538 0.220049 0.237294
v 0.808842 0.220049 0.237294
v 0.810818 0.222026 0.237294
v 0.810818 0.140964 0.237294
v 0.725538 0.222026 0.237294
v 0.810818 0.140964 0.237937
v 0.725538 0.222026 0.237937
v 0.810818 0.222026 0.237937
v 0.810913 0.140964 0.238537
v 0.725538 0.222121 0.238537
v 0.810913 0.222121 0.238537
v 0.811189 0.140964 0.239079
v 0.725538 0.222397 0.239079
v 0.811189 0.222397 0.239079
v 0.811619 0.140964 0.239509
v 0.725538 0.222827 0.239509
v 0.811619 0.222827 0.239509
v 0.812161 0.223369 0.239786
v 0.812161 0.140964 0.239786
v 0.725538 0.223369 0.239786
v 0.812762 0.223970 0.239881
v 0.725538 0.223970 0.239881
v 0.812762 0.140964 0.239881
v 0.815315 0.226523 0.239881
v 0.725538 0.226523 0.239881
v 0.815315 0.140964 0.239881
v 0.815947 0.227154 0.239853
v 0.725538 0.227154 0.239853
v 0.815947 0.140964 0.239853
v 0.816525 0.227733 0.239598
v 0.816525 0.140964 0.239598
v 0.725538 0.227733 0.239598
v 0.816973 0.140964 0.239151
v 0.725538 0.228180 0.239151
v 0.816973 0.228180 0.239151
v 0.817227 0.140964 0.238572
v 0.725538 0.228435 0.238572
v 0.817227 0.228435 0.238572
v 0.817255 0.140964 0.237941
v 0.725538 0.228462 0.237941
v 0.817255 0.228462 0.237941
v 0.817255 0.140964 0.226169
v 0.725538 0.228462 0.226169
v 0.817255 0.228462 0.226169
v 0.817160 0.140964 0.225569
v 0.725538 0.228367 0.225569
v 0.817160 0.228367 0.225569
v 0.816883 0.140964 0.225027
v 0.725538 0.228091 0.225027
v 0.816883 0.228091 0.225027
v 0.816453 0.227661 0.224596
v 0.816453 0.140964 0.224596
v 0.725538 0.227661 0.224596
v 0.815911 0.227119 0.224320
v 0.815911 0.140964 0.224320
v 0.725538 0.227119 0.224320
v 0.815311 0.226518 0.224225
v 0.815311 0.140964 0.224225
v 0.725538 0.226518 0.224225
v 0.755130 0.166338 0.224225
v 0.755130 0.140964 0.224225
v 0.725538 0.166338 0.224225
v 0.755130 0.140964 0.225320
v 0.725538 0.166338 0.225320
v 0.755130 0.166338 0.225320
v 0.725538 0.140964 0.225320
vt 1.228653 0.439591
vt 1.227927 0.416137
vt 1.228653 0.416137
vt 1.227927 0.438865
vt 1.231389 0.442326
vt 0.683547 0.192453
vt 0.684273 0.218345
vt 0.683547 0.219072
vt 1.22715 0.416137
vt 1.231389 0.416137
vt 0.680812 0.192453
vt 0.680812 0.221807
vt 0.684273 0.192453
vt 1.22715 0.438087
vt 1.234184 0.445121
vt 0.678017 0.224602
vt 0.685051 0.217568
vt 1.226249 0.416137
vt 1.234184 0.416137
vt 0.678017 0.192453
vt 0.685051 0.192453
vt 1.226249 0.437187
vt 1.237028 0.447966
vt 0.675172 0.227447
vt 0.685951 0.216668
vt 1.225437 0.416137
vt 1.237028 0.416137
vt 0.675172 0.192453
vt 0.685951 0.192453
vt 1.225437 0.436375
vt 1.239912 0.45085
vt 0.672288 0.230331
vt 0.686764 0.192453
vt 0.686764 0.215855
vt 1.224792 0.416137
vt 1.239912 0.416137
vt 0.672288 0.192453
vt 0.687409 0.192453
vt 1.224792 0.43573
vt 1.242826 0.453763
vt 0.669375 0.233244
vt 0.687409 0.21521
vt 1.224377 0.435315
vt 1.242826 0.416137
vt 0.669375 0.192453
vt 0.687824 0.214795
vt 1.224377 0.416137
vt 1.245758 0.456696
vt 0.666442 0.236177
vt 0.687824 0.192453
vt 1.224233 0.435171
vt 1.245758 0.416137
vt 0.666442 0.192453
vt 0.687968 0.214651
vt 1.224233 0.416137
vt 1.263857 0.474794
vt 0.648344 0.254275
vt 0.687968 0.192453
vt 1.263857 0.416137
vt 0.648344 0.192453
vt 1.264062 0.475
vt 0.648138 0.192453
vt 1.202035 0.416137
vt 1.264062 0.416137
vt 0.648138 0.254481
vt 1.202035 0.435171
vt 1.264248 0.475186
vt 0.647953 0.192453
vt 1.264248 0.416137
vt 0.647953 0.254666
vt 1.264395 0.416137
vt 0.647805 0.254814
vt 1.264395 0.475333
vt 0.647805 0.192453
vt 1.26449 0.416137
vt 0.647711 0.192453
vt 1.26449 0.475427
vt 0.647711 0.254908
vt 1.264523 0.416137
vt 0.647678 0.192453
vt 1.264523 0.47546
vt 0.647678 0.254941
vt 1.266005 0.476942
vt 0.646196 0.256423
vt 1.266005 0.416137
vt 0.646196 0.192453
vt 1.266076 0.416137
vt 0.646124 0.192453
vt 1.266076 0.477014
vt 0.646124 0.256495
vt 1.266283 0.416137
vt 0.645917 0.192453
vt 1.266283 0.477221
vt 0.645917 0.256702
vt 1.266606 0.416137
vt 0.645595 0.192453
vt 1.266606 0.477544
vt 0.645595 0.257024
vt 1.267013 0.47795
vt 0.645188 0.257431
vt 1.267013 0.416137
vt 0.645188 0.192453
vt 1.267463 0.478401
vt 0.644737 0.192453
vt 1.267463 0.416137
vt 0.644737 0.257882
vt 1.269378 0.480316
vt 0.642823 0.192453
vt 1.269378 0.416137
vt 0.642823 0.259796
vt 1.269852 0.48079
vt 0.642349 0.192453
vt 1.269852 0.416137
vt 0.642349 0.26027
vt 1.270286 0.481224
vt 0.641914 0.260705
vt 1.270286 0.416137
vt 0.641914 0.192453
vt 1.270622 0.416137
vt 0.641579 0.192453
vt 1.270622 0.481559
vt 0.641579 0.26104
vt 1.270813 0.416137
vt 0.641388 0.192453
vt 1.270813 0.48175
vt 0.641388 0.261231
vt 1.270833 0.416137
vt 0.641367 0.192453
vt 1.270833 0.481771
vt 0.641367 0.261252
vt 1.270762 0.416137
vt 0.641439 0.192453
vt 1.270762 0.481699
vt 0.641439 0.26118
vt 1.270555 0.416137
vt 0.641646 0.192453
vt 1.270555 0.481492
vt 0.641646 0.260973
vt 1.270232 0.48117
vt 0.641969 0.26065
vt 1.270232 0.416137
vt 0.641969 0.192453
vt 1.269826 0.480763
vt 0.642375 0.260244
vt 1.269826 0.416137
vt 0.642375 0.192453
vt 1.269375 0.480313
vt 0.642826 0.259793
vt 1.269375 0.416137
vt 0.642826 0.192453
vn 0.3725729611894492 0 0.9280029033308707
vn 0.2549120630856452 0 0.9669642393043395
vn 0.3403228707096644 0 0.940308642772113
vn 0 0.37257296118944894 0.9280029033308705
vn 0 0.25491206308564496 0.9669642393043396
vn -0.014007998363389614 0 0.9999018831774702
vn 0 0.3403228707096641 0.9403086427721129
vn 0.28396609531153205 0 0.958834321827041
vn 0 0.28396609531153183 0.9588343218270411
vn 0 -0.014007998363389836 0.9999018831774702
vn -0.3086658501740957 0 0.9511705383033595
vn 0.2266099070564189 0 0.9739856005218359
vn 0 0.22660990705641867 0.9739856005218359
vn 0 -0.3086658501740959 0.9511705383033594
vn -0.587187803660579 0 0.8094507293419813
vn 0.16845602892247077 0 0.9857091692379004
vn 0 0.16845602892247055 0.9857091692379004
vn 0 -0.5871878036605792 0.8094507293419811
vn -0.8083652857628376 0 0.5886812081029646
vn 0 -0.8083652857628377 0.5886812081029644
vn 0.10970996064726361 0 0.993963643467293
vn 0 0.10970996064726339 0.993963643467293
vn -0.9505991634831076 0 0.3104210533859069
vn 0 -0.9505991634831077 0.3104210533859067
vn 0.03986100934051183 0 0.9992052341407924
vn 0 0.03986100934051161 0.9992052341407924
vn -0.9968518313959844 0 0.07928698658967773
vn 0 -0.9968518313959844 0.0792869865896775
vn 0.0781989820359364 0 0.9969377709809891
vn 0 0.0781989820359362 0.9969377709809892
vn -1 0 0
vn 0 -1 0
vn 0.3090168573056278 0 0.9510565608316645
vn 0 0.30901685730562756 0.9510565608316646
vn 0 0 1
vn 0.5877850844899974 0 0.8090171162905557
vn 0 0.5877850844899972 0.8090171162905558
vn 0.8090171162905557 0 0.5877850844899974
vn 0 0.8090171162905556 0.5877850844899977
vn 0.9510565608316645 0 0.3090168573056278
vn 0 0.9510565608316643 0.309016857305628
vn 0.9969173391662902 0 0.0784590266929423
vn 0 0.9969173391662902 0.07845902669294252
vn 1 0 0
vn 0 1 0
vn -0.9969173391662902 0 0.0784590266929423
vn 0 -0.9969173391662902 0.07845902669294208
vn -0.9510565608316645 0 0.3090168573056278
vn 0 -0.9510565608316646 0.30901685730562756
vn -0.8090171162905557 0 0.5877850844899974
vn 0 -0.8090171162905558 0.5877850844899972
vn -0.5877850844899974 0 0.8090171162905557
vn 0 -0.5877850844899977 0.8090171162905556
vn -0.3090168573056278 0 0.9510565608316645
vn 0 -0.309016857305628 0.9510565608316643
vn -0.0784590266929423 0 0.9969173391662902
vn 0 -0.07845902669294252 0.9969173391662902
vn 0.021816999584026178 0 0.9997619809380383
vn 0 0.021816999584025956 0.9997619809380383
vn 0.22709892866994094 0 0.9738716941142529
vn 0 0.22709892866994077 0.9738716941142531
vn 0.5646550209052232 0 0.8253270305560833
vn 0 0.564655020905223 0.8253270305560834
vn 0.8254131599609589 0 0.5645291094029293
vn 0 0.8254131599609588 0.5645291094029296
vn 0.9739063898859708 0 0.22695009085540194
vn 0 0.9739063898859708 0.22695009085540216
vn 0.9997636366974576 0 0.021740992099574925
vn 0 0.9997636366974576 0.021740992099575147
vn 0.9969173391662902 0 -0.0784590266929423
vn 0 0.9969173391662902 -0.07845902669294208
vn 0.9510565608316645 0 -0.3090168573056278
vn 0 0.9510565608316646 -0.30901685730562756
vn 0.8090171162905557 0 -0.5877850844899974
vn 0 0.8090171162905558 -0.5877850844899972
vn 0.5877850844899974 0 -0.8090171162905557
vn 0 0.5877850844899977 -0.8090171162905556
vn 0.3090168573056278 0 -0.9510565608316645
vn 0 0.309016857305628 -0.9510565608316643
vn 0.0784590266929423 0 -0.9969173391662902
vn 0 0.07845902669294252 -0.9969173391662902
vn 0 0 -1
vn -0.3725729611894492 0 -0.9280029033308707
vn -0.2549120630856452 0 -0.9669642393043395
vn -0.3403228707096644 0 -0.940308642772113
vn 0 -0.37257296118944894 -0.9280029033308705
vn 0 -0.25491206308564496 -0.9669642393043396
vn 0.014007998363389614 0 -0.9999018831774702
vn 0 -0.3403228707096641 -0.9403086427721129
vn -0.28396609531153205 0 -0.958834321827041
vn 0 -0.28396609531153183 -0.9588343218270411
vn 0 0.014007998363389836 -0.9999018831774702
vn 0.3086658501740957 0 -0.9511705383033595
vn -0.2266099070564189 0 -0.9739856005218359
vn 0 -0.22660990705641867 -0.9739856005218359
vn 0 0.3086658501740959 -0.9511705383033594
vn 0.587187803660579 0 -0.8094507293419813
vn -0.16845602892247077 0 -0.9857091692379004
vn 0 -0.16845602892247055 -0.9857091692379004
vn 0 0.5871878036605792 -0.8094507293419811
vn 0.8083652857628376 0 -0.5886812081029646
vn 0 0.8083652857628377 -0.5886812081029644
vn -0.10970996064726361 0 -0.993963643467293
vn 0 -0.10970996064726339 -0.993963643467293
vn 0.9505991634831076 0 -0.3104210533859069
vn 0 0.9505991634831077 -0.3104210533859067
vn -0.03986100934051183 0 -0.9992052341407924
vn 0 -0.03986100934051161 -0.9992052341407924
vn 0.9968518313959844 0 -0.07928698658967773
vn 0 0.9968518313959844 -0.0792869865896775
vn -0.0781989820359364 0 -0.9969377709809891
vn 0 -0.0781989820359362 -0.9969377709809892
vn -0.3090168573056278 0 -0.9510565608316645
vn 0 -0.30901685730562756 -0.9510565608316646
vn -0.5877850844899974 0 -0.8090171162905557
vn 0 -0.5877850844899972 -0.8090171162905558
vn -0.8090171162905557 0 -0.5877850844899974
vn 0 -0.8090171162905556 -0.5877850844899977
vn -0.9510565608316645 0 -0.3090168573056278
vn 0 -0.9510565608316643 -0.309016857305628
vn -0.9969173391662902 0 -0.0784590266929423
vn 0 -0.9969173391662902 -0.07845902669294252
vn -0.021816999584026178 0 -0.9997619809380383
vn 0 -0.021816999584025956 -0.9997619809380383
vn -0.22709892866994094 0 -0.9738716941142529
vn 0 -0.22709892866994077 -0.9738716941142531
vn -0.5646550209052232 0 -0.8253270305560833
vn 0 -0.564655020905223 -0.8253270305560834
vn -0.8254131599609589 0 -0.5645291094029293
vn 0 -0.8254131599609588 -0.5645291094029296
vn -0.9739063898859708 0 -0.22695009085540194
vn 0 -0.9739063898859708 -0.22695009085540216
vn -0.9997636366974576 0 -0.021740992099574925
vn 0 -0.9997636366974576 -0.021740992099575147
usemtl material_0_0
f 1/1/1 2/2/2 3/3/1
f 2/2/2 1/1/1 4/4/2
f 3/3/1 5/5/3 1/1/1
f 6/6/4 4/7/5 1/8/4
f 4/4/2 7/9/6 2/2/2
f 5/5/3 3/3/1 8/10/3
f 9/11/7 1/8/4 5/12/7
f 4/7/5 6/6/4 10/13/5
f 1/8/4 9/11/7 6/6/4
f 7/9/6 4/4/2 11/14/6
f 8/10/3 12/15/8 5/5/3
f 12/16/9 9/11/7 5/12/7
f 10/13/5 11/17/10 4/7/5
f 11/14/6 13/18/11 7/9/6
f 12/15/8 8/10/3 14/19/8
f 9/11/7 12/16/9 15/20/9
f 11/17/10 10/13/5 16/21/10
f 13/18/11 11/14/6 17/22/11
f 14/19/8 18/23/12 12/15/8
f 18/24/13 15/20/9 12/16/9
f 16/21/10 17/25/14 11/17/10
f 17/22/11 19/26/15 13/18/11
f 18/23/12 14/19/8 20/27/12
f 15/20/9 18/24/13 21/28/13
f 17/25/14 16/21/10 22/29/14
f 19/26/15 17/22/11 23/30/15
f 20/27/12 24/31/16 18/23/12
f 24/32/17 21/28/13 18/24/13
f 25/33/18 17/25/14 22/29/14
f 17/25/14 25/33/18 23/34/18
f 23/30/15 26/35/19 19/26/15
f 24/31/16 20/27/12 27/36/16
f 21/28/13 24/32/17 28/37/17
f 29/38/20 23/34/18 25/33/18
f 26/35/19 23/30/15 30/39/19
f 27/36/16 31/40/21 24/31/16
f 31/41/22 28/37/17 24/32/17
f 23/34/18 29/38/20 30/42/20
f 32/43/23 26/35/19 30/39/19
f 31/40/21 27/36/16 33/44/21
f 28/37/17 31/41/22 34/45/22
f 29/38/20 32/46/24 30/42/20
f 26/35/19 32/43/23 35/47/23
f 33/44/21 36/48/25 31/40/21
f 36/49/26 34/45/22 31/41/22
f 32/46/24 29/38/20 37/50/24
f 38/51/27 35/47/23 32/43/23
f 36/48/25 33/44/21 39/52/25
f 34/45/22 36/49/26 40/53/26
f 37/50/24 38/54/28 32/46/24
f 35/47/23 38/51/27 41/55/27
f 39/52/25 42/56/29 36/48/25
f 42/57/30 40/53/26 36/49/26
f 38/54/28 37/50/24 43/58/28
f 44/51/31 41/55/27 38/51/27
f 42/56/29 39/52/25 45/59/29
f 40/53/26 42/57/30 46/60/30
f 43/58/28 44/54/32 38/54/28
f 41/55/27 44/51/31 47/55/31
f 45/59/29 48/61/33 42/56/29
f 42/57/30 49/62/34 46/60/30
f 44/54/32 43/58/28 50/58/32
f 44/51/35 51/63/35 47/55/35
f 48/61/33 45/59/29 52/64/33
f 49/62/34 42/57/30 48/65/34
f 51/63/35 44/51/35 50/66/35
f 52/64/33 53/67/36 48/61/33
f 48/65/34 54/68/37 49/62/34
f 53/67/36 52/64/33 55/69/36
f 54/68/37 48/65/34 53/70/37
f 56/71/38 53/67/36 55/69/36
f 57/72/39 54/68/37 53/70/37
f 53/67/36 56/71/38 57/73/38
f 54/68/37 57/72/39 58/74/39
f 59/75/40 57/73/38 56/71/38
f 57/72/39 60/76/41 58/74/39
f 57/73/38 59/75/40 61/77/40
f 60/76/41 57/72/39 61/78/41
f 62/79/42 61/77/40 59/75/40
f 61/78/41 63/80/43 60/76/41
f 61/77/40 62/79/42 64/81/42
f 63/80/43 61/78/41 64/82/43
f 65/79/44 64/81/42 62/79/42
f 64/82/43 66/80/45 63/80/43
f 64/81/42 65/79/44 67/81/44
f 66/80/45 64/82/43 67/82/45
f 65/79/35 68/83/35 67/81/35
f 68/84/35 66/80/35 67/82/35
f 68/83/35 65/79/35 69/85/35
f 66/80/35 68/84/35 70/86/35
f 71/85/46 68/83/31 69/85/31
f 68/84/32 72/86/47 70/86/32
f 68/83/31 71/85/46 73/83/46
f 72/86/47 68/84/32 73/84/47
f 74/87/48 73/83/46 71/85/46
f 73/84/47 75/88/49 72/86/47
f 73/83/46 74/87/48 76/89/48
f 75/88/49 73/84/47 76/90/49
f 77/91/50 76/89/48 74/87/48
f 76/90/49 78/92/51 75/88/49
f 76/89/48 77/91/50 79/93/50
f 78/92/51 76/90/49 79/94/51
f 80/95/52 79/93/50 77/91/50
f 79/94/51 81/96/53 78/92/51
f 79/93/50 80/95/52 82/97/52
f 81/96/53 79/94/51 82/98/53
f 80/95/52 83/99/54 82/97/52
f 83/100/55 81/96/53 82/98/53
f 83/99/54 80/95/52 84/101/54
f 81/96/53 83/100/55 85/102/55
f 84/101/54 86/103/56 83/99/54
f 83/100/55 87/104/57 85/102/55
f 86/103/56 84/101/54 88/105/56
f 87/104/57 83/100/55 86/106/57
f 88/105/56 89/107/58 86/103/56
f 86/106/57 90/108/59 87/104/57
f 89/107/58 88/105/56 91/109/58
f 90/108/59 86/106/57 89/110/59
f 91/109/58 92/111/60 89/107/58
f 89/110/59 93/112/61 90/108/59
f 92/111/60 91/109/58 94/113/60
f 93/112/61 89/110/59 92/114/61
f 94/113/60 95/115/62 92/111/60
f 95/116/63 93/112/61 92/114/61
f 95/115/62 94/113/60 96/117/62
f 93/112/61 95/116/63 97/118/63
f 98/119/64 95/115/62 96/117/62
f 95/116/63 99/120/65 97/118/63
f 95/115/62 98/119/64 100/121/64
f 99/120/65 95/116/63 100/122/65
f 101/123/66 100/121/64 98/119/64
f 100/122/65 102/124/67 99/120/65
f 100/121/64 101/123/66 103/125/66
f 102/124/67 100/122/65 103/126/67
f 104/127/68 103/125/66 101/123/66
f 103/126/67 105/128/69 102/124/67
f 103/125/66 104/127/68 106/129/68
f 105/128/69 103/126/67 106/130/69
f 107/127/70 106/129/68 104/127/68
f 106/130/69 108/128/71 105/128/69
f 106/129/68 107/127/70 109/129/70
f 108/128/71 106/130/69 109/130/71
f 110/131/72 109/129/70 107/127/70
f 109/130/71 111/132/73 108/128/71
f 109/129/70 110/131/72 112/133/72
f 111/132/73 109/130/71 112/134/73
f 113/135/74 112/133/72 110/131/72
f 112/134/73 114/136/75 111/132/73
f 112/133/72 113/135/74 115/137/74
f 114/136/75 112/134/73 115/138/75
f 113/135/74 116/139/76 115/137/74
f 116/140/77 114/136/75 115/138/75
f 116/139/76 113/135/74 117/141/76
f 114/136/75 116/140/77 118/142/77
f 117/141/76 119/143/78 116/139/76
f 119/144/79 118/142/77 116/140/77
f 119/143/78 117/141/76 120/145/78
f 118/142/77 119/144/79 121/146/79
f 120/145/78 122/147/80 119/143/78
f 122/148/81 121/146/79 119/144/79
f 122/147/80 120/145/78 123/149/80
f 121/146/79 122/148/81 124/150/81
f 123/149/80 125/51/82 122/147/80
f 125/54/82 124/150/81 122/148/81
f 125/51/82 123/149/80 126/55/82
f 124/150/81 125/54/82 127/58/82
f 128/55/31 125/51/31 126/55/31
f 125/54/32 129/58/32 127/58/32
f 125/51/31 128/55/31 130/51/31
f 129/58/32 125/54/32 130/54/32
f 128/55/82 129/66/82 130/51/82
f 129/66/82 128/55/82 131/63/82
usemtl material_1_0
f 3//83 2//84 1//83
f 4//84 1//83 2//84
f 1//83 5//85 3//83
f 1//86 4//87 6//86
f 2//84 7//88 4//84
f 8//85 3//83 5//85
f 5//89 1//86 9//89
f 10//87 6//86 4//87
f 6//86 9//89 1//86
f 11//88 4//84 7//88
f 5//85 12//90 8//85
f 5//89 9//89 12//91
f 4//87 11//92 10//87
f 7//88 13//93 11//88
f 14//90 8//85 12//90
f 15//91 12//91 9//89
f 16//92 10//87 11//92
f 17//93 11//88 13//93
f 12//90 18//94 14//90
f 12//91 15//91 18//95
f 11//92 17//96 16//92
f 13//93 19//97 17//93
f 20//94 14//90 18//94
f 21//95 18//95 15//91
f 22//96 16//92 17//96
f 23//97 17//93 19//97
f 18//94 24//98 20//94
f 18//95 21//95 24//99
f 22//96 17//96 25//100
f 23//100 25//100 17//96
f 19//97 26//101 23//97
f 27//98 20//94 24//98
f 28//99 24//99 21//95
f 25//100 23//100 29//102
f 30//101 23//97 26//101
f 24//98 31//103 27//98
f 24//99 28//99 31//104
f 30//102 29//102 23//100
f 30//101 26//101 32//105
f 33//103 27//98 31//103
f 34//104 31//104 28//99
f 30//102 32//106 29//102
f 35//105 32//105 26//101
f 31//103 36//107 33//103
f 31//104 34//104 36//108
f 37//106 29//102 32//106
f 32//105 35//105 38//109
f 39//107 33//103 36//107
f 40//108 36//108 34//104
f 32//106 38//110 37//106
f 41//109 38//109 35//105
f 36//107 42//111 39//107
f 36//108 40//108 42//112
f 43//110 37//106 38//110
f 38//109 41//109 44//44
f 45//111 39//107 42//111
f 46//112 42//112 40//108
f 38//110 44//45 43//110
f 47//44 44//44 41//109
f 42//111 48//113 45//111
f 46//112 49//114 42//112
f 50//45 43//110 44//45
f 47//82 51//82 44//82
f 52//113 45//111 48//113
f 48//114 42//112 49//114
f 50//82 44//82 51//82
f 48//113 53//115 52//113
f 49//114 54//116 48//114
f 55//115 52//113 53//115
f 53//116 48//114 54//116
f 55//115 53//115 56//117
f 53//116 54//116 57//118
f 57//117 56//117 53//115
f 58//118 57//118 54//116
f 56//117 57//117 59//119
f 58//118 60//120 57//118
f 61//119 59//119 57//117
f 61//120 57//118 60//120
f 59//119 61//119 62//121
f 60//120 63//122 61//120
f 64//121 62//121 61//119
f 64//122 61//120 63//122
f 62//121 64//121 65//31
f 63//122 66//32 64//122
f 67//31 65//31 64//121
f 67//32 64//122 66//32
f 67//82 68//82 65//82
f 67//82 66//82 68//82
f 69//82 65//82 68//82
f 70//82 68//82 66//82
f 69//44 68//44 71//70
f 70//45 72//71 68//45
f 73//70 71//70 68//44
f 73//71 68//45 72//71
f 71//70 73//70 74//72
f 72//71 75//73 73//71
f 76//72 74//72 73//70
f 76//73 73//71 75//73
f 74//72 76//72 77//74
f 75//73 78//75 76//73
f 79//74 77//74 76//72
f 79//75 76//73 78//75
f 77//74 79//74 80//76
f 78//75 81//77 79//75
f 82//76 80//76 79//74
f 82//77 79//75 81//77
f 82//76 83//78 80//76
f 82//77 81//77 83//79
f 84//78 80//76 83//78
f 85//79 83//79 81//77
f 83//78 86//80 84//78
f 85//79 87//81 83//79
f 88//80 84//78 86//80
f 86//81 83//79 87//81
f 86//80 89//123 88//80
f 87//81 90//124 86//81
f 91//123 88//80 89//123
f 89//124 86//81 90//124
f 89//123 92//125 91//123
f 90//124 93//126 89//124
f 94//125 91//123 92//125
f 92//126 89//124 93//126
f 92//125 95//127 94//125
f 92//126 93//126 95//128
f 96//127 94//125 95//127
f 97//128 95//128 93//126
f 96//127 95//127 98//129
f 97//128 99//130 95//128
f 100//129 98//129 95//127
f 100//130 95//128 99//130
f 98//129 100//129 101//131
f 99//130 102//132 100//130
f 103//131 101//131 100//129
f 103//132 100//130 102//132
f 101//131 103//131 104//133
f 102//132 105//134 103//132
f 106//133 104//133 103//131
f 106//134 103//132 105//134
f 104//133 106//133 107//46
f 105//134 108//47 106//134
f 109//46 107//46 106//133
f 109//47 106//134 108//47
f 107//46 109//46 110//48
f 108//47 111//49 109//47
f 112//48 110//48 109//46
f 112//49 109//47 111//49
f 110//48 112//48 113//50
f 111//49 114//51 112//49
f 115//50 113//50 112//48
f 115//51 112//49 114//51
f 115//50 116//52 113//50
f 115//51 114//51 116//53
f 117//52 113//50 116//52
f 118//53 116//53 114//51
f 116//52 119//54 117//52
f 116//53 118//53 119//55
f 120//54 117//52 119//54
f 121//55 119//55 118//53
f 119//54 122//56 120//54
f 119//55 121//55 122//57
f 123//56 120//54 122//56
f 124//57 122//57 121//55
f 122//56 125//35 123//56
f 122//57 124//57 125//35
f 126//35 123//56 125//35
f 127//35 125//35 124//57
f 126//44 125//44 128//44
f 127//45 129//45 125//45
f 130//44 128//44 125//44
f 130//45 125//45 129//45
f 130//35 129//35 128//35
f 131//35 128//35 129//35
