# SSTK version 0.8.0
# 46
mtllib original-46.mtl
o DF_12_CL1/DF_12_CL/mesh33/mesh33-geometry#mesh33-geometry
v 0.368446 0.376304 0.244527
v 0.364799 0.292395 0.243083
v 0.368446 0.292395 0.244527
v 0.364799 0.376304 0.243083
v 0.369414 0.376304 0.244921
v 0.361073 0.292395 0.241858
v 0.369414 0.292395 0.244921
v 0.361073 0.376304 0.241858
v 0.370450 0.376304 0.245055
v 0.357281 0.292395 0.240857
v 0.370450 0.292395 0.245055
v 0.357281 0.376304 0.240857
v 0.371650 0.376304 0.244865
v 0.353436 0.292395 0.240082
v 0.371650 0.292395 0.244865
v 0.353436 0.376304 0.240082
v 0.372733 0.376304 0.244314
v 0.349552 0.292395 0.239536
v 0.372733 0.292395 0.244314
v 0.349552 0.376304 0.239536
v 0.373593 0.376304 0.243456
v 0.345642 0.292395 0.239221
v 0.373593 0.292395 0.243456
v 0.345642 0.376304 0.239221
v 0.374146 0.292395 0.242374
v 0.337046 0.292395 0.239234
v 0.374146 0.376304 0.242374
v 0.337046 0.376304 0.239234
v 0.374338 0.292395 0.241174
v 0.336771 0.292395 0.239191
v 0.374338 0.376304 0.241174
v 0.336771 0.376304 0.239191
v 0.374338 0.292395 0.233085
v 0.336524 0.292395 0.239064
v 0.374338 0.376304 0.233085
v 0.336524 0.376304 0.239064
v 0.413757 0.376304 0.233085
v 0.336327 0.292395 0.238868
v 0.413757 0.292395 0.233085
v 0.336327 0.376304 0.238868
v 0.336201 0.376304 0.238621
v 0.336201 0.292395 0.238621
v 0.336158 0.376304 0.238346
v 0.336158 0.292395 0.238346
v 0.336158 0.376304 0.237294
v 0.336158 0.292395 0.237294
v 0.334182 0.292395 0.237294
v 0.334182 0.376304 0.237294
v 0.334182 0.376304 0.237937
v 0.334182 0.292395 0.237937
v 0.334086 0.376304 0.238537
v 0.334086 0.292395 0.238537
v 0.333810 0.376304 0.239079
v 0.333810 0.292395 0.239079
v 0.333380 0.376304 0.239509
v 0.333380 0.292395 0.239509
v 0.332838 0.292395 0.239786
v 0.332838 0.376304 0.239786
v 0.332237 0.292395 0.239881
v 0.332237 0.376304 0.239881
v 0.329685 0.292395 0.239881
v 0.329685 0.376304 0.239881
v 0.329053 0.292395 0.239853
v 0.329053 0.376304 0.239853
v 0.328474 0.292395 0.239598
v 0.328474 0.376304 0.239598
v 0.328027 0.376304 0.239151
v 0.328027 0.292395 0.239151
v 0.327772 0.376304 0.238572
v 0.327772 0.292395 0.238572
v 0.327745 0.376304 0.237941
v 0.327745 0.292395 0.237941
v 0.327745 0.376304 0.226169
v 0.327745 0.292395 0.226169
v 0.327840 0.376304 0.225569
v 0.327840 0.292395 0.225569
v 0.328116 0.376304 0.225027
v 0.328116 0.292395 0.225027
v 0.328546 0.376304 0.224596
v 0.328546 0.292395 0.224596
v 0.329088 0.292395 0.224320
v 0.329088 0.376304 0.224320
v 0.329689 0.292395 0.224225
v 0.329689 0.376304 0.224225
v 0.374338 0.292395 0.224225
v 0.374338 0.376304 0.224225
v 0.374338 0.376304 0.225320
v 0.374338 0.292395 0.225320
v 0.413757 0.292395 0.225320
v 0.413757 0.376304 0.225320
vt 0.306511 -0.471239
vt 0.353828 -0.473975
vt 0.353828 -0.471239
vt 0.306511 -0.473975
vt 0.306511 -0.470513
vt 0.353828 -0.47677
vt 0.353828 -0.470513
vt 0.306511 -0.47677
vt 0.306511 -0.469735
vt 0.353828 -0.479614
vt 0.353828 -0.469735
vt 0.306511 -0.479614
vt 0.306511 -0.468835
vt 0.353828 -0.482498
vt 0.353828 -0.468835
vt 0.306511 -0.482498
vt 0.306511 -0.468023
vt 0.353828 -0.485412
vt 0.353828 -0.468023
vt 0.306511 -0.485412
vt 0.306511 -0.467378
vt 0.353828 -0.488344
vt 0.353828 -0.467378
vt 0.306511 -0.488344
vt 0.353828 -0.466963
vt 0.353828 -0.494793
vt 0.306511 -0.466963
vt 0.306511 -0.494793
vt 0.353828 -0.466819
vt 0.353828 -0.494998
vt 0.306511 -0.466819
vt 0.306511 -0.494998
vt 0.353828 -0.495184
vt 0.306511 -0.495184
vt 0.306511 -0.437251
vt 0.353828 -0.495331
vt 0.353828 -0.437251
vt 0.306511 -0.495331
vt 0.306511 -0.495426
vt 0.353828 -0.495426
vt 0.306511 -0.495458
vt 0.353828 -0.495458
vt 0.353828 -0.496941
vt 0.306511 -0.496941
vt 0.306511 -0.497012
vt 0.353828 -0.497012
vt 0.306511 -0.497219
vt 0.353828 -0.497219
vt 0.306511 -0.497542
vt 0.353828 -0.497542
vt 0.353828 -0.497949
vt 0.306511 -0.497949
vt 0.353828 -0.498399
vt 0.306511 -0.498399
vt 0.353828 -0.500314
vt 0.306511 -0.500314
vt 0.353828 -0.500788
vt 0.306511 -0.500788
vt 0.353828 -0.501222
vt 0.306511 -0.501222
vt 0.306511 -0.501558
vt 0.353828 -0.501558
vt 0.306511 -0.501749
vt 0.353828 -0.501749
vt 0.306511 -0.501769
vt 0.353828 -0.501769
vt 0.306511 -0.501698
vt 0.353828 -0.501698
vt 0.306511 -0.501491
vt 0.353828 -0.501491
vt 0.306511 -0.501168
vt 0.353828 -0.501168
vt 0.353828 -0.500762
vt 0.306511 -0.500762
vt 0.353828 -0.500311
vt 0.306511 -0.500311
vn -0.3725729611894492 0 0.9280029033308707
vn -0.3403228707096644 0 0.940308642772113
vn -0.2549120630856452 0 0.9669642393043395
vn -0.28396609531153205 0 0.958834321827041
vn 0.014007998363389614 0 0.9999018831774702
vn -0.2266099070564189 0 0.9739856005218359
vn 0.3086658501740957 0 0.9511705383033595
vn -0.16845602892247077 0 0.9857091692379004
vn 0.587187803660579 0 0.8094507293419813
vn -0.10970996064726361 0 0.993963643467293
vn 0.8083652857628376 0 0.5886812081029646
vn -0.03938999656763463 0 0.9992239129296305
vn 0.9505991634831076 0 0.3104210533859069
vn -0.07772896315391516 0 0.9969745274012859
vn 0.9968518313959844 0 0.07928698658967773
vn -0.3090168573056278 0 0.9510565608316645
vn 1 0 0
vn -0.5877850844899974 0 0.8090171162905557
vn 0 0 1
vn -0.8090171162905557 0 0.5877850844899974
vn -0.9510565608316645 0 0.3090168573056278
vn -0.9969173391662902 0 0.0784590266929423
vn -1 0 0
vn 0.9969173391662902 0 0.0784590266929423
vn 0.9510565608316645 0 0.3090168573056278
vn 0.8090171162905557 0 0.5877850844899974
vn 0.5877850844899974 0 0.8090171162905557
vn 0.3090168573056278 0 0.9510565608316645
vn 0.0784590266929423 0 0.9969173391662902
vn -0.021816999584026178 0 0.9997619809380383
vn -0.22709892866994094 0 0.9738716941142529
vn -0.5646550209052232 0 0.8253270305560833
vn -0.8254131599609589 0 0.5645291094029293
vn -0.9739063898859708 0 0.22695009085540194
vn -0.9997636366974576 0 0.021740992099574925
vn -0.9969173391662902 0 -0.0784590266929423
vn -0.9510565608316645 0 -0.3090168573056278
vn -0.8090171162905557 0 -0.5877850844899974
vn -0.5877850844899974 0 -0.8090171162905557
vn -0.3090168573056278 0 -0.9510565608316645
vn -0.0784590266929423 0 -0.9969173391662902
vn 0 0 -1
vn 0.3725729611894492 0 -0.9280029033308707
vn 0.3403228707096644 0 -0.940308642772113
vn 0.2549120630856452 0 -0.9669642393043395
vn 0.28396609531153205 0 -0.958834321827041
vn -0.014007998363389614 0 -0.9999018831774702
vn 0.2266099070564189 0 -0.9739856005218359
vn -0.3086658501740957 0 -0.9511705383033595
vn 0.16845602892247077 0 -0.9857091692379004
vn -0.587187803660579 0 -0.8094507293419813
vn 0.10970996064726361 0 -0.993963643467293
vn -0.8083652857628376 0 -0.5886812081029646
vn 0.03938999656763463 0 -0.9992239129296305
vn -0.9505991634831076 0 -0.3104210533859069
vn 0.07772896315391516 0 -0.9969745274012859
vn -0.9968518313959844 0 -0.07928698658967773
vn 0.3090168573056278 0 -0.9510565608316645
vn 0.5877850844899974 0 -0.8090171162905557
vn 0.8090171162905557 0 -0.5877850844899974
vn 0.9510565608316645 0 -0.3090168573056278
vn 0.9969173391662902 0 -0.0784590266929423
vn 0.021816999584026178 0 -0.9997619809380383
vn 0.22709892866994094 0 -0.9738716941142529
vn 0.5646550209052232 0 -0.8253270305560833
vn 0.8254131599609589 0 -0.5645291094029293
vn 0.9739063898859708 0 -0.22695009085540194
vn 0.9997636366974576 0 -0.021740992099574925
usemtl material_0_0
f 1/1/1 2/2/2 3/3/1
f 2/2/2 1/1/1 4/4/2
f 3/3/1 5/5/3 1/1/1
f 4/4/2 6/6/4 2/2/2
f 5/5/3 3/3/1 7/7/3
f 6/6/4 4/4/2 8/8/4
f 7/7/3 9/9/5 5/5/3
f 8/8/4 10/10/6 6/6/4
f 9/9/5 7/7/3 11/11/5
f 10/10/6 8/8/4 12/12/6
f 11/11/5 13/13/7 9/9/5
f 12/12/6 14/14/8 10/10/6
f 13/13/7 11/11/5 15/15/7
f 14/14/8 12/12/6 16/16/8
f 15/15/7 17/17/9 13/13/7
f 16/16/8 18/18/10 14/14/8
f 17/17/9 15/15/7 19/19/9
f 18/18/10 16/16/8 20/20/10
f 19/19/9 21/21/11 17/17/9
f 20/20/10 22/22/12 18/18/10
f 21/21/11 19/19/9 23/23/11
f 22/22/12 20/20/10 24/24/12
f 25/25/13 21/21/11 23/23/11
f 24/24/12 26/26/14 22/22/12
f 21/21/11 25/25/13 27/27/13
f 26/26/14 24/24/12 28/28/14
f 29/29/15 27/27/13 25/25/13
f 28/28/14 30/30/16 26/26/14
f 27/27/13 29/29/15 31/31/15
f 30/30/16 28/28/14 32/32/16
f 33/29/17 31/31/15 29/29/15
f 32/32/16 34/33/18 30/30/16
f 31/31/15 33/29/17 35/31/17
f 34/33/18 32/32/16 36/34/18
f 33/29/19 37/35/19 35/31/19
f 36/34/18 38/36/20 34/33/18
f 37/35/19 33/29/19 39/37/19
f 38/36/20 36/34/18 40/38/20
f 41/39/21 38/36/20 40/38/20
f 38/36/20 41/39/21 42/40/21
f 43/41/22 42/40/21 41/39/21
f 42/40/21 43/41/22 44/42/22
f 45/41/23 44/42/22 43/41/22
f 44/42/22 45/41/23 46/42/23
f 45/41/19 47/43/19 46/42/19
f 47/43/19 45/41/19 48/44/19
f 49/44/24 47/43/17 48/44/17
f 47/43/17 49/44/24 50/43/24
f 51/45/25 50/43/24 49/44/24
f 50/43/24 51/45/25 52/46/25
f 53/47/26 52/46/25 51/45/25
f 52/46/25 53/47/26 54/48/26
f 55/49/27 54/48/26 53/47/26
f 54/48/26 55/49/27 56/50/27
f 55/49/27 57/51/28 56/50/27
f 57/51/28 55/49/27 58/52/28
f 58/52/28 59/53/29 57/51/28
f 59/53/29 58/52/28 60/54/29
f 60/54/29 61/55/30 59/53/29
f 61/55/30 60/54/29 62/56/30
f 62/56/30 63/57/31 61/55/30
f 63/57/31 62/56/30 64/58/31
f 64/58/31 65/59/32 63/57/31
f 65/59/32 64/58/31 66/60/32
f 67/61/33 65/59/32 66/60/32
f 65/59/32 67/61/33 68/62/33
f 69/63/34 68/62/33 67/61/33
f 68/62/33 69/63/34 70/64/34
f 71/65/35 70/64/34 69/63/34
f 70/64/34 71/65/35 72/66/35
f 73/65/36 72/66/35 71/65/35
f 72/66/35 73/65/36 74/66/36
f 75/67/37 74/66/36 73/65/36
f 74/66/36 75/67/37 76/68/37
f 77/69/38 76/68/37 75/67/37
f 76/68/37 77/69/38 78/70/38
f 79/71/39 78/70/38 77/69/38
f 78/70/38 79/71/39 80/72/39
f 79/71/39 81/73/40 80/72/39
f 81/73/40 79/71/39 82/74/40
f 82/74/40 83/75/41 81/73/40
f 83/75/41 82/74/40 84/76/41
f 84/76/41 85/29/42 83/75/41
f 85/29/42 84/76/41 86/31/42
f 87/31/17 85/29/17 86/31/17
f 85/29/17 87/31/17 88/29/17
f 87/31/42 89/37/42 88/29/42
f 89/37/42 87/31/42 90/35/42
usemtl material_1_0
f 3//43 2//44 1//43
f 4//44 1//43 2//44
f 1//43 5//45 3//43
f 2//44 6//46 4//44
f 7//45 3//43 5//45
f 8//46 4//44 6//46
f 5//45 9//47 7//45
f 6//46 10//48 8//46
f 11//47 7//45 9//47
f 12//48 8//46 10//48
f 9//47 13//49 11//47
f 10//48 14//50 12//48
f 15//49 11//47 13//49
f 16//50 12//48 14//50
f 13//49 17//51 15//49
f 14//50 18//52 16//50
f 19//51 15//49 17//51
f 20//52 16//50 18//52
f 17//51 21//53 19//51
f 18//52 22//54 20//52
f 23//53 19//51 21//53
f 24//54 20//52 22//54
f 23//53 21//53 25//55
f 22//54 26//56 24//54
f 27//55 25//55 21//53
f 28//56 24//54 26//56
f 25//55 27//55 29//57
f 26//56 30//58 28//56
f 31//57 29//57 27//55
f 32//58 28//56 30//58
f 29//57 31//57 33//23
f 30//58 34//59 32//58
f 35//23 33//23 31//57
f 36//59 32//58 34//59
f 35//42 37//42 33//42
f 34//59 38//60 36//59
f 39//42 33//42 37//42
f 40//60 36//59 38//60
f 40//60 38//60 41//61
f 42//61 41//61 38//60
f 41//61 42//61 43//62
f 44//62 43//62 42//61
f 43//62 44//62 45//17
f 46//17 45//17 44//62
f 46//42 47//42 45//42
f 48//42 45//42 47//42
f 48//23 47//23 49//36
f 50//36 49//36 47//23
f 49//36 50//36 51//37
f 52//37 51//37 50//36
f 51//37 52//37 53//38
f 54//38 53//38 52//37
f 53//38 54//38 55//39
f 56//39 55//39 54//38
f 56//39 57//40 55//39
f 58//40 55//39 57//40
f 57//40 59//41 58//40
f 60//41 58//40 59//41
f 59//41 61//63 60//41
f 62//63 60//41 61//63
f 61//63 63//64 62//63
f 64//64 62//63 63//64
f 63//64 65//65 64//64
f 66//65 64//64 65//65
f 66//65 65//65 67//66
f 68//66 67//66 65//65
f 67//66 68//66 69//67
f 70//67 69//67 68//66
f 69//67 70//67 71//68
f 72//68 71//68 70//67
f 71//68 72//68 73//24
f 74//24 73//24 72//68
f 73//24 74//24 75//25
f 76//25 75//25 74//24
f 75//25 76//25 77//26
f 78//26 77//26 76//25
f 77//26 78//26 79//27
f 80//27 79//27 78//26
f 80//27 81//28 79//27
f 82//28 79//27 81//28
f 81//28 83//29 82//28
f 84//29 82//28 83//29
f 83//29 85//19 84//29
f 86//19 84//29 85//19
f 86//23 85//23 87//23
f 88//23 87//23 85//23
f 88//19 89//19 87//19
f 90//19 87//19 89//19
